<svg width="500" height="500" viewBox="0 0 500 500" fill="none" xmlns="http://www.w3.org/2000/svg">
    <path d="M76.2152 198.151C76.2152 198.151 60.1652 266.733 104.87 326.487C149.575 386.241 227.503 409.462 290.14 429.938C352.777 450.415 411.449 426.773 433.456 374.133C455.463 321.493 411.011 293.136 401.208 224.381C391.406 155.626 399.23 135.826 353.508 83.4768C307.786 31.1278 213.96 32.3748 150.524 86.1228C87.0892 139.871 76.2152 198.151 76.2152 198.151Z" fill="#D7EEF2"/>
    <path opacity="0.7" d="M76.2152 198.151C76.2152 198.151 60.1652 266.733 104.87 326.487C149.575 386.241 227.503 409.462 290.14 429.938C352.777 450.415 411.449 426.773 433.456 374.133C455.463 321.493 411.011 293.136 401.208 224.381C391.406 155.626 399.23 135.826 353.508 83.4768C307.786 31.1278 213.96 32.3748 150.524 86.1228C87.0892 139.871 76.2152 198.151 76.2152 198.151Z" fill="white"/>
    <path d="M328.596 252.649L324.467 246.062H288.107V252.649V255.02V364.627H437.763V252.649H328.596Z" fill="#263238"/>
    <path d="M436.778 255.671H289.22V362.241H436.778V255.671Z" fill="white"/>
    <mask id="mask0_238_137" style="mask-type:luminance" maskUnits="userSpaceOnUse" x="289" y="255" width="148" height="108">
        <path d="M436.778 255.671H289.22V362.241H436.778V255.671Z" fill="white"/>
    </mask>
    <g mask="url(#mask0_238_137)">
        <path opacity="0.17" d="M437.499 254.757H434.074V363.047H437.499V254.757Z" fill="black"/>
    </g>
    <mask id="mask1_238_137" style="mask-type:luminance" maskUnits="userSpaceOnUse" x="289" y="255" width="148" height="108">
        <path d="M436.778 255.671H289.22V362.241H436.778V255.671Z" fill="white"/>
    </mask>
    <g mask="url(#mask1_238_137)">
        <path opacity="0.17" d="M437.499 320.231H434.074V362.168H437.499V320.231Z" fill="black"/>
    </g>
    <mask id="mask2_238_137" style="mask-type:luminance" maskUnits="userSpaceOnUse" x="289" y="255" width="148" height="108">
        <path d="M436.778 255.671H289.22V362.241H436.778V255.671Z" fill="white"/>
    </mask>
    <g mask="url(#mask2_238_137)">
        <path d="M436.973 254.23H288.634V260.027H436.973V254.23Z" fill="#A6DBE4" stroke="#263238" stroke-miterlimit="10"/>
    </g>
    <path d="M436.778 255.671H289.22V362.241H436.778V255.671Z" stroke="#263238" stroke-miterlimit="10" stroke-linecap="round" stroke-linejoin="round"/>
    <g opacity="0.17">
        <path d="M366.1 265.615H355.777C355.274 265.615 354.866 265.207 354.866 264.704C354.866 264.201 355.274 263.793 355.777 263.793H366.1C366.603 263.793 367.011 264.201 367.011 264.704C367.011 265.207 366.603 265.615 366.1 265.615Z" fill="black"/>
        <path d="M386.746 265.615H376.423C375.92 265.615 375.512 265.207 375.512 264.704C375.512 264.201 375.92 263.793 376.423 263.793H386.746C387.249 263.793 387.657 264.201 387.657 264.704C387.657 265.207 387.249 265.615 386.746 265.615Z" fill="black"/>
        <path d="M407.392 265.615H397.069C396.566 265.615 396.158 265.207 396.158 264.704C396.158 264.201 396.566 263.793 397.069 263.793H407.392C407.895 263.793 408.303 264.201 408.303 264.704C408.303 265.207 407.895 265.615 407.392 265.615Z" fill="black"/>
        <path d="M428.038 265.615H417.715C417.212 265.615 416.804 265.207 416.804 264.704C416.804 264.201 417.212 263.793 417.715 263.793H428.038C428.541 263.793 428.949 264.201 428.949 264.704C428.949 265.207 428.541 265.615 428.038 265.615Z" fill="black"/>
    </g>
    <path d="M414.676 319.946H404.968V350.577H414.676V319.946Z" fill="#A6DBE4" stroke="#263238" stroke-miterlimit="10"/>
    <path d="M403.889 339.766H394.181V350.577H403.889V339.766Z" fill="#263238" stroke="#263238" stroke-miterlimit="10" stroke-linecap="round" stroke-linejoin="round"/>
    <path d="M393.102 279.405H383.394V350.577H393.102V279.405Z" fill="#A6DBE4" stroke="#263238" stroke-miterlimit="10"/>
    <path d="M382.314 283.008H372.606V350.577H382.314V283.008Z" fill="white" stroke="#263238" stroke-miterlimit="10" stroke-linecap="round" stroke-linejoin="round"/>
    <path d="M371.527 319.946H361.819V350.577H371.527V319.946Z" fill="#A6DBE4" stroke="#263238" stroke-miterlimit="10"/>
    <path d="M360.74 310.036H351.032V350.577H360.74V310.036Z" fill="#263238" stroke="#263238" stroke-miterlimit="10" stroke-linecap="round" stroke-linejoin="round"/>
    <path d="M349.953 345.172H340.245V350.577H349.953V345.172Z" fill="#A6DBE4" stroke="#263238" stroke-miterlimit="10"/>
    <path d="M339.166 339.766H329.458V350.577H339.166V339.766Z" fill="white" stroke="#263238" stroke-miterlimit="10" stroke-linecap="round" stroke-linejoin="round"/>
    <path d="M328.379 319.946H318.671V350.577H328.379V319.946Z" fill="#A6DBE4" stroke="#263238" stroke-miterlimit="10"/>
    <path d="M330.936 292.448L334.411 312.156C323.527 314.075 313.148 306.808 311.228 295.923C311.03 294.802 310.924 293.586 310.924 292.448H330.936Z" stroke="#263238" stroke-width="0.75" stroke-miterlimit="10" stroke-linecap="round" stroke-linejoin="round"/>
    <path d="M330.936 292.448L346.706 304.768C343.494 308.879 339.549 311.249 334.412 312.155L330.936 292.448Z" stroke="#263238" stroke-width="0.75" stroke-miterlimit="10"/>
    <path d="M330.936 292.448L320.93 275.117C330.502 269.591 342.741 272.87 348.267 282.442C352.428 289.649 351.83 298.21 346.706 304.768L330.936 292.448Z" stroke="#263238" stroke-width="0.75" stroke-miterlimit="10" stroke-linecap="round" stroke-linejoin="round"/>
    <path d="M337.831 299.348C341.641 295.538 341.641 289.36 337.831 285.55C334.021 281.739 327.843 281.739 324.032 285.55C320.222 289.36 320.222 295.538 324.032 299.348C327.843 303.158 334.021 303.158 337.831 299.348Z" fill="white" stroke="#263238" stroke-width="0.75" stroke-miterlimit="10" stroke-linecap="round" stroke-linejoin="round"/>
    <path d="M359.282 371.417H383.072" stroke="#263238" stroke-miterlimit="10"/>
    <path d="M359.282 375.466H383.072" stroke="#263238" stroke-miterlimit="10"/>
    <path d="M359.282 379.515H383.072" stroke="#263238" stroke-miterlimit="10"/>
    <path d="M359.282 383.565H383.072" stroke="#263238" stroke-miterlimit="10"/>
    <path d="M410.307 346.807V379.63H387.058" stroke="#263238" stroke-miterlimit="10"/>
    <path d="M139.164 82.519L133.314 73.186H81.7979V82.519V85.878V241.172H293.834V82.519H139.164Z" fill="#263238"/>
    <path d="M292.437 86.7998H83.374V237.79H292.437V86.7998Z" fill="white"/>
    <mask id="mask3_238_137" style="mask-type:luminance" maskUnits="userSpaceOnUse" x="83" y="86" width="210" height="152">
        <path d="M292.437 86.7998H83.374V237.79H292.437V86.7998Z" fill="white"/>
    </mask>
    <g mask="url(#mask3_238_137)">
        <path opacity="0.17" d="M293.461 85.5049H288.608V238.933H293.461V85.5049Z" fill="black"/>
    </g>
    <mask id="mask4_238_137" style="mask-type:luminance" maskUnits="userSpaceOnUse" x="83" y="86" width="210" height="152">
        <path d="M292.437 86.7998H83.374V237.79H292.437V86.7998Z" fill="white"/>
    </mask>
    <g mask="url(#mask4_238_137)">
        <path opacity="0.17" d="M293.461 178.271H288.608V237.688H293.461V178.271Z" fill="black"/>
    </g>
    <mask id="mask5_238_137" style="mask-type:luminance" maskUnits="userSpaceOnUse" x="83" y="86" width="210" height="152">
        <path d="M292.437 86.7998H83.374V237.79H292.437V86.7998Z" fill="white"/>
    </mask>
    <g mask="url(#mask5_238_137)">
        <path d="M292.714 84.7578H82.5439V92.9708H292.714V84.7578Z" fill="#A6DBE4" stroke="#263238" stroke-miterlimit="10"/>
    </g>
    <path d="M292.437 86.7998H83.374V237.79H292.437V86.7998Z" stroke="#263238" stroke-miterlimit="10" stroke-linecap="round" stroke-linejoin="round"/>
    <g opacity="0.17">
        <path d="M192.3 100.889H177.674C176.961 100.889 176.384 100.311 176.384 99.5981C176.384 98.8851 176.962 98.3071 177.674 98.3071H192.3C193.013 98.3071 193.591 98.8851 193.591 99.5981C193.591 100.311 193.013 100.889 192.3 100.889Z" fill="black"/>
        <path d="M221.552 100.889H206.926C206.213 100.889 205.636 100.311 205.636 99.5981C205.636 98.8851 206.214 98.3071 206.926 98.3071H221.552C222.265 98.3071 222.842 98.8851 222.842 99.5981C222.842 100.311 222.265 100.889 221.552 100.889Z" fill="black"/>
        <path d="M250.804 100.889H236.178C235.465 100.889 234.888 100.311 234.888 99.5981C234.888 98.8851 235.466 98.3071 236.178 98.3071H250.804C251.517 98.3071 252.095 98.8851 252.095 99.5981C252.094 100.311 251.516 100.889 250.804 100.889Z" fill="black"/>
        <path d="M280.055 100.889H265.43C264.717 100.889 264.139 100.311 264.139 99.5981C264.139 98.8851 264.717 98.3071 265.43 98.3071H280.056C280.769 98.3071 281.346 98.8851 281.346 99.5981C281.346 100.311 280.768 100.889 280.055 100.889Z" fill="black"/>
    </g>
    <path d="M94.7788 173.571H283.1" stroke="#263238" stroke-width="0.5" stroke-miterlimit="10"/>
    <path d="M94.7788 173.571V172.115" stroke="#263238" stroke-width="0.5" stroke-miterlimit="10"/>
    <path d="M118.319 173.571V172.115" stroke="#263238" stroke-width="0.5" stroke-miterlimit="10"/>
    <path d="M141.859 173.571V172.115" stroke="#263238" stroke-width="0.5" stroke-miterlimit="10"/>
    <path d="M165.399 173.571V172.115" stroke="#263238" stroke-width="0.5" stroke-miterlimit="10"/>
    <path d="M188.939 173.571V172.115" stroke="#263238" stroke-width="0.5" stroke-miterlimit="10"/>
    <path d="M212.48 173.571V172.115" stroke="#263238" stroke-width="0.5" stroke-miterlimit="10"/>
    <path d="M236.02 173.571V172.115" stroke="#263238" stroke-width="0.5" stroke-miterlimit="10"/>
    <path d="M259.56 173.571V172.115" stroke="#263238" stroke-width="0.5" stroke-miterlimit="10"/>
    <path d="M283.1 173.571V172.115" stroke="#263238" stroke-width="0.5" stroke-miterlimit="10"/>
    <path d="M130.089 158.393L106.549 165.672" stroke="#263238" stroke-width="2" stroke-miterlimit="10" stroke-linecap="round"/>
    <path d="M153.629 142.378L130.089 158.393" stroke="#263238" stroke-width="2" stroke-miterlimit="10" stroke-linecap="round"/>
    <path d="M177.169 120.54L153.629 142.378" stroke="#263238" stroke-width="2" stroke-miterlimit="10" stroke-linecap="round"/>
    <path d="M200.71 118.356L177.169 120.54" stroke="#263238" stroke-width="2" stroke-miterlimit="10" stroke-linecap="round"/>
    <path d="M224.25 134.371L200.71 118.356" stroke="#263238" stroke-width="2" stroke-miterlimit="10" stroke-linecap="round"/>
    <path d="M247.79 149.658L224.25 134.371" stroke="#263238" stroke-width="2" stroke-miterlimit="10" stroke-linecap="round"/>
    <path d="M271.33 117.628L247.79 149.658" stroke="#263238" stroke-width="2" stroke-miterlimit="10" stroke-linecap="round"/>
    <path d="M106.549 162.672C108.206 162.672 109.549 164.015 109.549 165.672C109.549 167.329 108.206 168.672 106.549 168.672C104.892 168.672 103.549 167.329 103.549 165.672C103.549 164.015 104.892 162.672 106.549 162.672Z" fill="#A6DBE4" stroke="#263238" stroke-miterlimit="10"/>
    <path d="M130.089 155.393C131.746 155.393 133.089 156.736 133.089 158.393C133.089 160.05 131.746 161.393 130.089 161.393C128.432 161.393 127.089 160.05 127.089 158.393C127.089 156.736 128.432 155.393 130.089 155.393Z" fill="#A6DBE4" stroke="#263238" stroke-miterlimit="10"/>
    <path d="M153.629 139.378C155.286 139.378 156.629 140.721 156.629 142.378C156.629 144.035 155.286 145.378 153.629 145.378C151.972 145.378 150.629 144.035 150.629 142.378C150.629 140.721 151.972 139.378 153.629 139.378Z" fill="#A6DBE4" stroke="#263238" stroke-miterlimit="10"/>
    <path d="M177.169 117.54C178.826 117.54 180.169 118.883 180.169 120.54C180.169 122.197 178.826 123.54 177.169 123.54C175.512 123.54 174.169 122.197 174.169 120.54C174.169 118.883 175.513 117.54 177.169 117.54Z" fill="#A6DBE4" stroke="#263238" stroke-miterlimit="10"/>
    <path d="M200.71 115.356C202.367 115.356 203.71 116.699 203.71 118.356C203.71 120.013 202.367 121.356 200.71 121.356C199.053 121.356 197.71 120.013 197.71 118.356C197.71 116.7 199.053 115.356 200.71 115.356Z" fill="#A6DBE4" stroke="#263238" stroke-miterlimit="10"/>
    <path d="M224.25 131.371C225.907 131.371 227.25 132.714 227.25 134.371C227.25 136.028 225.907 137.371 224.25 137.371C222.593 137.371 221.25 136.028 221.25 134.371C221.25 132.714 222.593 131.371 224.25 131.371Z" fill="#A6DBE4" stroke="#263238" stroke-miterlimit="10"/>
    <path d="M247.79 146.658C249.447 146.658 250.79 148.001 250.79 149.658C250.79 151.315 249.447 152.658 247.79 152.658C246.133 152.658 244.79 151.315 244.79 149.658C244.79 148.001 246.133 146.658 247.79 146.658Z" fill="#A6DBE4" stroke="#263238" stroke-miterlimit="10"/>
    <path d="M271.33 114.628C272.987 114.628 274.33 115.971 274.33 117.628C274.33 119.285 272.987 120.628 271.33 120.628C269.673 120.628 268.33 119.285 268.33 117.628C268.33 115.971 269.673 114.628 271.33 114.628Z" fill="#A6DBE4" stroke="#263238" stroke-miterlimit="10"/>
    <path d="M182.124 211.343L160.964 215.074C158.903 203.388 166.707 192.244 178.393 190.183C179.597 189.971 180.902 189.857 182.124 189.857V211.343Z" fill="#263238" stroke="#263238" stroke-miterlimit="10" stroke-linecap="round" stroke-linejoin="round"/>
    <path d="M182.124 211.343L168.896 228.274C164.482 224.826 161.937 220.59 160.964 215.074L182.124 211.343Z" fill="#A6DBE4" stroke="#263238" stroke-miterlimit="10"/>
    <path d="M182.124 211.343L200.732 200.6C206.665 210.877 203.144 224.017 192.867 229.951C185.129 234.419 175.937 233.776 168.896 228.275L182.124 211.343Z" fill="white" stroke="#263238" stroke-miterlimit="10" stroke-linecap="round" stroke-linejoin="round"/>
    <path d="M182.124 211.343V189.857C190.063 189.857 196.762 193.725 200.732 200.6L182.124 211.343Z" fill="#A6DBE4" stroke="#263238" stroke-miterlimit="10"/>
    <path d="M189.528 218.75C193.619 214.659 193.62 208.026 189.528 203.935C185.437 199.844 178.804 199.844 174.713 203.935C170.622 208.026 170.622 214.659 174.713 218.75C178.804 222.841 185.437 222.841 189.528 218.75Z" fill="white" stroke="#263238" stroke-miterlimit="10" stroke-linecap="round" stroke-linejoin="round"/>
    <path d="M118.567 211.379L122.298 232.539C110.612 234.6 99.4681 226.797 97.4071 215.11C97.1951 213.906 97.0811 212.601 97.0811 211.379H118.567Z" fill="#263238" stroke="#263238" stroke-miterlimit="10" stroke-linecap="round" stroke-linejoin="round"/>
    <path d="M118.567 211.379L135.498 224.607C132.05 229.021 127.813 231.566 122.298 232.539L118.567 211.379Z" fill="#A6DBE4" stroke="#263238" stroke-miterlimit="10"/>
    <path d="M118.567 211.379L107.824 192.771C118.101 186.838 131.241 190.359 137.175 200.636C141.643 208.374 141 217.566 135.499 224.607L118.567 211.379Z" fill="white" stroke="#263238" stroke-miterlimit="10" stroke-linecap="round" stroke-linejoin="round"/>
    <path d="M118.567 211.379H97.0811C97.0811 203.44 100.949 196.741 107.824 192.771L118.567 211.379Z" fill="#A6DBE4" stroke="#263238" stroke-miterlimit="10"/>
    <path d="M118.567 221.855C124.353 221.855 129.043 217.165 129.043 211.379C129.043 205.594 124.353 200.903 118.567 200.903C112.781 200.903 108.091 205.594 108.091 211.379C108.091 217.165 112.781 221.855 118.567 221.855Z" fill="white" stroke="#263238" stroke-miterlimit="10" stroke-linecap="round" stroke-linejoin="round"/>
    <path d="M245.608 211.379L249.339 232.539C237.653 234.6 226.509 226.797 224.448 215.11C224.236 213.906 224.122 212.601 224.122 211.379H245.608Z" fill="#263238" stroke="#263238" stroke-miterlimit="10" stroke-linecap="round" stroke-linejoin="round"/>
    <path d="M245.608 211.379L262.539 224.607C259.091 229.021 254.855 231.566 249.339 232.539L245.608 211.379Z" fill="#A6DBE4" stroke="#263238" stroke-miterlimit="10"/>
    <path d="M245.608 211.379L234.865 192.771C245.142 186.838 258.282 190.359 264.216 200.636C268.684 208.374 268.041 217.566 262.54 224.607L245.608 211.379Z" fill="white" stroke="#263238" stroke-miterlimit="10" stroke-linecap="round" stroke-linejoin="round"/>
    <path d="M245.608 211.379H224.122C224.122 203.44 227.99 196.741 234.865 192.771L245.608 211.379Z" fill="#A6DBE4" stroke="#263238" stroke-miterlimit="10"/>
    <path d="M245.608 221.855C251.394 221.855 256.084 217.165 256.084 211.379C256.084 205.594 251.394 200.903 245.608 200.903C239.822 200.903 235.132 205.594 235.132 211.379C235.132 217.165 239.822 221.855 245.608 221.855Z" fill="white" stroke="#263238" stroke-miterlimit="10" stroke-linecap="round" stroke-linejoin="round"/>
    <path d="M95.2969 109.855H119.087" stroke="#263238" stroke-miterlimit="10"/>
    <path d="M95.2969 113.905H119.087" stroke="#263238" stroke-miterlimit="10"/>
    <path d="M95.2969 117.954H119.087" stroke="#263238" stroke-miterlimit="10"/>
    <path d="M95.2969 122.003H119.087" stroke="#263238" stroke-miterlimit="10"/>
    <path d="M280.384 119.099H303.633L330.986 143.032" stroke="#263238" stroke-miterlimit="10" stroke-linecap="round" stroke-linejoin="round"/>
    <path d="M335.348 136.187H359.139" stroke="#263238" stroke-miterlimit="10"/>
    <path d="M335.348 140.236H359.139" stroke="#263238" stroke-miterlimit="10"/>
    <path d="M335.348 144.286H359.139" stroke="#263238" stroke-miterlimit="10"/>
    <path d="M335.348 148.335H359.139" stroke="#263238" stroke-miterlimit="10"/>
    <path d="M335.348 205.251H359.139" stroke="#263238" stroke-miterlimit="10"/>
    <path d="M335.348 209.301H359.139" stroke="#263238" stroke-miterlimit="10"/>
    <path d="M335.348 213.35H359.139" stroke="#263238" stroke-miterlimit="10"/>
    <path d="M335.348 217.4H359.139" stroke="#263238" stroke-miterlimit="10"/>
    <path d="M106.957 285.257H130.747" stroke="#263238" stroke-miterlimit="10"/>
    <path d="M106.957 289.306H130.747" stroke="#263238" stroke-miterlimit="10"/>
    <path d="M106.957 293.355H130.747" stroke="#263238" stroke-miterlimit="10"/>
    <path d="M106.957 297.405H130.747" stroke="#263238" stroke-miterlimit="10"/>
    <path d="M256.451 199.105L266.024 188.164H304.317L331.669 210.729" stroke="#263238" stroke-miterlimit="10"/>
    <path d="M118.321 231.927V283.213" stroke="#263238" stroke-miterlimit="10"/>
    <path d="M71.9941 318.652C73.9251 319.496 78.6481 319.389 78.6511 319.389C78.7001 319.388 77.6361 316.298 77.5471 316.11C76.5101 313.942 73.2341 310.363 70.5671 310.723C68.6461 310.983 67.5781 312.905 68.0121 314.714C68.4551 316.561 70.3501 317.933 71.9941 318.652Z" fill="#263238"/>
    <path d="M133.86 302.576C131.185 302.288 128.006 305.954 127.029 308.149C126.945 308.339 125.964 311.457 126.014 311.457C126.014 311.457 126.06 311.456 126.071 311.456C125.565 312.031 125.028 312.653 124.456 313.345C123.41 314.63 122.239 316.093 121.072 317.77C119.902 319.443 118.677 321.294 117.564 323.359C116.445 325.428 115.373 327.662 114.567 330.106C114.558 330.134 114.552 330.164 114.543 330.191C114.557 329.403 114.522 327.198 114.5 327.029C114.191 324.646 112.194 320.224 109.548 319.734C107.642 319.382 106.027 320.875 105.875 322.729C105.72 324.622 107.093 326.517 108.431 327.712C109.94 329.06 114.13 330.366 114.464 330.469C113.717 332.804 113.141 335.26 112.694 337.779C112.437 339.218 112.223 340.676 112.027 342.141C112.017 341.459 112.003 340.85 111.992 340.765C111.683 338.382 109.686 333.96 107.04 333.471C105.134 333.119 103.519 334.612 103.367 336.466C103.212 338.359 104.584 340.254 105.923 341.449C107.281 342.662 110.831 343.847 111.774 344.148C111.705 344.711 111.629 345.271 111.562 345.834C111.239 348.534 110.929 351.23 110.544 353.865C110.409 354.794 110.241 355.703 110.077 356.614C110.067 356.008 110.054 355.498 110.044 355.421C109.735 353.038 107.738 348.616 105.092 348.127C103.186 347.775 101.571 349.268 101.42 351.122C101.265 353.015 102.638 354.91 103.976 356.105C105.272 357.263 108.538 358.386 109.658 358.749C109.461 359.676 109.267 360.606 109.035 361.496C108.863 362.1 108.739 362.694 108.532 363.291C108.34 363.886 108.149 364.476 107.961 365.06C107.557 366.171 107.147 367.32 106.725 368.394C106.438 369.143 106.15 369.852 105.862 370.566C106.008 369.643 106.254 367.831 106.258 367.677C106.295 366.081 105.728 363.486 104.6 361.662C104.607 361.426 104.593 361.191 104.556 360.958C104.261 359.122 102.536 357.758 100.662 358.257C98.0623 358.949 96.4133 363.513 96.2903 365.913C96.2833 366.054 96.3763 367.599 96.4503 368.573C96.3193 368.007 96.1993 367.457 96.0573 366.876C95.7843 365.726 95.4793 364.587 95.1543 363.359C94.9763 362.772 94.7973 362.179 94.6163 361.58C94.4493 360.982 94.1963 360.372 93.9883 359.761C93.4743 358.355 92.8843 356.955 92.2593 355.558C93.2663 355.317 96.8273 354.409 98.2573 353.311C99.6813 352.219 101.191 350.431 101.177 348.532C101.164 346.672 99.6653 345.063 97.7383 345.272C95.0633 345.563 92.7423 349.824 92.2563 352.177C92.2263 352.324 92.0673 354.051 91.9993 355.002C91.6173 354.165 91.2393 353.328 90.8253 352.494C89.6303 350.086 88.3443 347.686 87.0733 345.286C86.6833 344.551 86.3043 343.814 85.9213 343.078C86.2803 342.996 90.5373 342.008 92.1393 340.779C93.5633 339.687 95.0733 337.899 95.0593 336C95.0463 334.14 93.5473 332.531 91.6203 332.74C88.9453 333.031 86.6243 337.292 86.1383 339.645C86.1023 339.822 85.8773 342.308 85.8513 342.943C85.0093 341.321 84.1843 339.697 83.4363 338.063C82.4013 335.81 81.5103 333.542 80.8103 331.281C80.9773 331.243 85.4253 330.233 87.0653 328.974C88.4893 327.882 89.9993 326.094 89.9853 324.195C89.9723 322.335 88.4733 320.726 86.5463 320.935C83.8713 321.226 81.5503 325.487 81.0643 327.84C81.0263 328.025 80.7863 330.7 80.7773 331.188C80.7363 331.053 80.6783 330.918 80.6383 330.784C79.9213 328.361 79.5303 325.923 79.2773 323.623C79.1273 322.287 79.0583 321.001 79.0203 319.749C79.8683 319.646 83.7363 319.131 85.3383 318.161C86.8733 317.231 88.5703 315.621 88.7653 313.732C88.9563 311.882 87.6433 310.117 85.7053 310.114C83.0143 310.109 80.2393 314.09 79.4983 316.375C79.4583 316.499 79.1883 317.808 79.0053 318.764C78.9963 318.199 78.9773 317.615 78.9793 317.073C78.9833 315.038 79.1113 313.175 79.2393 311.526C79.3193 310.589 79.4103 309.743 79.5033 308.953C80.2823 308.418 83.3943 306.221 84.3513 304.651C85.2853 303.119 86.0493 300.907 85.3523 299.141C84.6693 297.411 82.6913 296.45 80.9693 297.34C78.5793 298.576 77.9503 303.387 78.3453 305.757C78.3793 305.962 79.2823 309.103 79.3233 309.076C79.3233 309.076 79.3613 309.05 79.3703 309.044C79.2653 309.803 79.1613 310.618 79.0653 311.51C78.9013 313.159 78.7323 315.025 78.6843 317.068C78.6313 319.109 78.6313 321.328 78.8413 323.665C79.0493 326.008 79.3874 328.462 80.0633 330.946C80.0714 330.974 80.0823 331.002 80.0903 331.03C79.6673 330.365 78.4213 328.545 78.3103 328.416C76.7383 326.599 72.6323 324.012 70.1563 325.064C68.3723 325.822 67.8493 327.958 68.7453 329.588C69.6603 331.252 71.8503 332.076 73.6263 332.334C75.6293 332.626 79.8443 331.404 80.1793 331.305C80.8443 333.664 81.7193 336.031 82.7353 338.378C83.3143 339.72 83.9403 341.055 84.5853 342.384C84.2013 341.821 83.8533 341.32 83.7963 341.255C82.2243 339.438 78.1183 336.851 75.6423 337.903C73.8583 338.661 73.3353 340.797 74.2313 342.427C75.1463 344.092 77.3363 344.915 79.1123 345.174C80.9143 345.436 84.5283 344.467 85.4813 344.197C85.7343 344.704 85.9803 345.214 86.2343 345.72C87.4553 348.15 88.6833 350.57 89.8153 352.98C90.2153 353.829 90.5773 354.68 90.9423 355.531C90.6003 355.031 90.3083 354.613 90.2563 354.554C88.6843 352.737 84.5793 350.15 82.1023 351.202C80.3183 351.96 79.7953 354.096 80.6913 355.726C81.6063 357.39 83.7963 358.214 85.5723 358.472C87.2923 358.723 90.6363 357.857 91.7703 357.543C92.1183 358.425 92.4683 359.307 92.7663 360.178C92.9553 360.777 93.1803 361.34 93.3373 361.952C93.5053 362.555 93.6723 363.151 93.8373 363.742C94.1133 364.892 94.4043 366.076 94.6453 367.205C94.8193 367.988 94.9693 368.738 95.1243 369.493C94.7363 368.643 93.9423 366.995 93.8603 366.865C92.5823 364.831 88.9153 361.652 86.3083 362.316C84.4303 362.795 83.5893 364.827 84.2283 366.574C84.8803 368.358 86.9203 369.503 88.6373 370.028C90.5263 370.606 94.7103 370.078 95.2323 370.008C95.4833 371.258 95.7153 372.476 95.9153 373.629C96.6203 377.624 97.0543 380.979 97.3263 383.327C97.3743 383.744 97.4153 384.117 97.4533 384.468H89.3563L92.3133 442.161H106.111L109.068 384.468H101.524C101.58 384.352 101.633 384.244 101.691 384.122C102.726 381.965 104.161 378.866 105.712 375.074C106.205 373.877 106.707 372.588 107.211 371.259C107.717 371.365 111.859 372.206 113.788 371.77C115.538 371.374 117.658 370.384 118.442 368.654C119.209 366.96 118.523 364.87 116.685 364.253C114.135 363.396 110.241 366.293 108.815 368.226C108.731 368.34 107.956 369.679 107.481 370.533C107.684 369.989 107.887 369.463 108.089 368.901C108.496 367.792 108.87 366.672 109.276 365.469C109.452 364.882 109.629 364.288 109.808 363.688C109.999 363.098 110.125 362.449 110.288 361.825C110.634 360.369 110.915 358.876 111.165 357.366C112.137 357.72 115.609 358.928 117.407 358.801C119.197 358.675 121.442 358.018 122.479 356.426C123.494 354.867 123.132 352.698 121.409 351.81C119.018 350.577 114.731 352.85 113.027 354.545C112.921 354.651 111.836 356.004 111.254 356.759C111.397 355.85 111.544 354.944 111.658 354.019C111.989 351.351 112.241 348.64 112.505 345.937C112.585 345.109 112.675 344.285 112.762 343.46C113.106 343.59 117.202 345.114 119.216 344.973C121.006 344.848 123.252 344.19 124.288 342.598C125.303 341.039 124.941 338.87 123.218 337.982C120.827 336.749 116.54 339.022 114.837 340.717C114.709 340.845 113.15 342.794 112.778 343.31C112.97 341.493 113.178 339.683 113.456 337.908C113.836 335.458 114.344 333.075 115.007 330.802C115.167 330.863 119.434 332.473 121.497 332.329C123.287 332.203 125.533 331.546 126.569 329.954C127.584 328.395 127.222 326.226 125.499 325.338C123.107 324.104 118.821 326.378 117.118 328.073C116.984 328.206 115.308 330.305 115.031 330.707C115.071 330.572 115.097 330.428 115.138 330.293C115.877 327.876 116.896 325.628 117.953 323.569C118.565 322.372 119.217 321.261 119.876 320.196C120.64 320.577 124.15 322.282 126.021 322.357C127.814 322.429 130.118 322.022 131.323 320.554C132.503 319.116 132.381 316.92 130.767 315.848C128.525 314.36 124.015 316.149 122.136 317.646C122.034 317.727 121.087 318.67 120.407 319.367C120.712 318.891 121.017 318.393 121.318 317.942C122.444 316.247 123.579 314.764 124.594 313.459C125.178 312.722 125.72 312.066 126.234 311.459C127.179 311.442 130.986 311.327 132.651 310.545C134.275 309.782 136.133 308.359 136.526 306.501C136.907 304.677 135.787 302.784 133.86 302.576ZM104.24 374.45C102.623 378.171 101.135 381.209 100.066 383.317C99.8503 383.742 99.6573 384.118 99.4773 384.465H99.2983C99.2463 384.054 99.1873 383.604 99.1173 383.098C98.7913 380.728 98.2783 377.352 97.4793 373.333C97.2303 372.063 96.9383 370.71 96.6253 369.324C96.9393 369.199 98.7243 368.477 100.304 367.594C101.681 369.085 105.21 370.831 105.667 371.053C105.187 372.234 104.708 373.378 104.24 374.45Z" fill="#263238"/>
    <path d="M119.764 319.691C119.805 319.717 120.623 316.552 120.652 316.347C120.983 313.967 120.225 309.174 117.802 308.004C116.057 307.161 114.105 308.175 113.469 309.922C112.819 311.707 113.643 313.897 114.618 315.404C115.762 317.172 119.76 319.689 119.764 319.691Z" fill="#263238"/>
    <path d="M291.83 467.964C319.676 467.964 342.25 461.335 342.25 453.158C342.25 444.981 319.676 438.352 291.83 438.352C263.984 438.352 241.41 444.981 241.41 453.158C241.41 461.335 263.984 467.964 291.83 467.964Z" fill="#3F7097"/>
    <path opacity="0.5" d="M291.83 467.964C319.676 467.964 342.25 461.335 342.25 453.158C342.25 444.981 319.676 438.352 291.83 438.352C263.984 438.352 241.41 444.981 241.41 453.158C241.41 461.335 263.984 467.964 291.83 467.964Z" fill="white"/>
    <path d="M288.129 217.115C288.129 217.115 284.719 212.204 278.58 211.522C272.442 210.84 267.258 215.069 264.803 217.797C262.348 220.525 263.984 225.845 263.712 226.936C263.439 228.027 260.165 231.574 260.302 232.665C260.438 233.756 262.075 233.893 262.075 233.893C262.075 233.893 263.439 240.304 264.258 241.805C265.076 243.306 267.259 243.578 268.077 243.578C268.895 243.578 269.705 244.227 269.705 244.227L270.97 248.656L289.629 244.396L289.083 238.258C289.083 238.258 293.721 232.119 293.312 226.117C292.903 220.117 288.129 217.115 288.129 217.115Z" fill="white" stroke="#263238" stroke-miterlimit="10" stroke-linecap="round" stroke-linejoin="round"/>
    <path d="M284.309 219.707C280.353 220.389 274.76 214.66 271.35 217.115C271.35 217.115 266.712 220.935 266.985 222.708C267.258 224.481 269.44 225.845 269.304 227.482C269.168 229.119 269.85 232.529 270.668 231.029C271.487 229.528 271.077 227.892 272.305 227.482C273.533 227.073 275.306 229.255 275.579 231.302C275.852 233.348 275.443 234.303 276.534 235.804C277.625 237.305 280.217 239.214 283.082 239.078C285.947 238.942 289.084 238.259 289.084 238.259C289.084 238.259 293.722 232.121 293.313 226.119C292.904 220.117 288.129 217.116 288.129 217.116C288.129 217.116 288.265 219.025 284.309 219.707Z" fill="white" stroke="#263238" stroke-miterlimit="10" stroke-linecap="round" stroke-linejoin="round"/>
    <path d="M271.214 234.712C271.214 234.712 271.623 237.849 273.533 237.304C275.443 236.758 275.852 234.03 275.852 234.03" stroke="#263238" stroke-miterlimit="10" stroke-linecap="round" stroke-linejoin="round"/>
    <path d="M265.348 252.855C265.348 252.855 266.286 251.199 268.06 249.29C269.833 247.38 279.871 243.616 284.509 243.343C289.147 243.07 292.955 246.884 295.138 248.657C297.321 250.43 296.586 252.446 296.586 252.446C296.586 252.446 289.356 249.854 280.08 251.082C270.804 252.31 264.529 253.947 264.529 253.947L265.348 252.855Z" fill="#3F7097" stroke="#263238" stroke-miterlimit="10" stroke-linecap="round" stroke-linejoin="round"/>
    <path d="M240.68 333.095C240.68 333.095 241.911 341.509 242.322 343.561C242.732 345.613 245.651 352.238 247.27 350.67C248.889 349.102 249.505 343.766 248.684 341.098C247.863 338.43 246.632 333.505 246.427 332.889C246.221 332.274 240.68 333.095 240.68 333.095Z" fill="white" stroke="#263238" stroke-miterlimit="10" stroke-linecap="round" stroke-linejoin="round"/>
    <path d="M238.339 303.19C238.339 303.19 236.566 309.056 236.566 313.284C236.566 317.513 237.248 322.287 238.203 328.562C238.757 332.203 241.201 335.881 243.114 335.792C248.98 335.519 246.797 324.606 247.888 318.331C248.979 312.056 249.934 311.647 250.48 304.69" fill="#3F7097"/>
    <path d="M238.339 303.19C238.339 303.19 236.566 309.056 236.566 313.284C236.566 317.513 237.248 322.287 238.203 328.562C238.757 332.203 241.201 335.881 243.114 335.792C248.98 335.519 246.797 324.606 247.888 318.331C248.979 312.056 249.934 311.647 250.48 304.69" stroke="#263238" stroke-miterlimit="10" stroke-linecap="round" stroke-linejoin="round"/>
    <path d="M266.59 444.645C266.59 444.645 264.874 444.573 263.158 445.36C261.442 446.146 261.013 447.219 261.585 448.291C262.157 449.363 263.444 451.937 265.517 453.224C267.59 454.511 270.45 455.154 272.094 456.227C273.738 457.299 276.812 456.942 277.885 455.012C278.957 453.082 277.67 448.792 277.67 448.792C277.67 448.792 273.095 447.648 270.592 446.504C268.091 445.36 266.59 444.645 266.59 444.645Z" fill="white" stroke="#263238" stroke-miterlimit="10" stroke-linecap="round" stroke-linejoin="round"/>
    <path d="M277.885 455.011C277.973 454.852 278.041 454.672 278.099 454.485C276.602 455.957 274.309 456.183 273.095 455.94C271.665 455.654 269.091 453.867 267.447 453.223C265.803 452.58 263.872 450.649 262.943 449.005C262.274 447.821 262.124 446.604 262.093 446.013C261.291 446.694 261.159 447.492 261.585 448.29C262.157 449.362 263.444 451.936 265.517 453.223C267.59 454.51 270.45 455.153 272.094 456.226C273.739 457.298 276.813 456.941 277.885 455.011Z" fill="white" stroke="#263238" stroke-miterlimit="10" stroke-linecap="round" stroke-linejoin="round"/>
    <path d="M294.058 446.473C294.058 446.473 294.558 449.833 294.558 451.191C294.558 452.549 296.846 454.98 299.205 454.98C301.564 454.98 303.923 454.051 304.924 452.835C305.925 451.62 305.567 447.402 305.567 447.402C305.567 447.402 296.274 448.832 294.058 446.473Z" fill="white" stroke="#263238" stroke-miterlimit="10" stroke-linecap="round" stroke-linejoin="round"/>
    <path d="M304.925 452.836C305.181 452.525 305.347 452.016 305.454 451.433C304.314 452.696 302.02 454.549 299.42 454.051C297.023 453.592 295.322 451.718 294.541 450.68C294.551 450.869 294.558 451.044 294.558 451.192C294.558 452.55 296.846 454.981 299.205 454.981C301.565 454.981 303.924 454.051 304.925 452.836Z" fill="white" stroke="#263238" stroke-miterlimit="10" stroke-linecap="round" stroke-linejoin="round"/>
    <path d="M254.708 320.105C254.708 320.105 255.254 331.291 254.981 336.065C254.708 340.839 255.39 365.257 255.936 373.305C256.482 381.353 258.255 399.496 259.483 406.862C260.711 414.228 267.159 443.151 267.159 443.151C267.159 443.151 265.849 445.77 266.177 446.861C266.504 447.952 269.124 450.79 273.052 451.226C276.981 451.662 277.745 450.789 278.508 449.043C279.271 447.297 279.599 442.714 279.818 439.876C280.036 437.039 282.4 431.279 281.581 423.64C280.762 416.001 282.263 389.401 282.263 389.401L283.491 371.122C283.491 371.122 284.309 393.493 285.128 396.904C285.946 400.314 292.172 437.126 292.827 439.199C293.482 441.273 292.936 444.983 293.373 445.856C293.81 446.729 294.137 448.693 295.228 449.566C296.319 450.439 301.012 450.875 302.758 450.112C304.504 449.348 305.923 448.366 305.923 447.602C305.923 446.838 306.578 443.237 306.36 441.273C306.142 439.309 305.596 437.672 305.596 437.126C305.596 436.58 307.227 407.544 307.227 399.496C307.227 391.448 306.272 382.445 306.272 382.445C306.272 382.445 309.41 358.71 309.955 349.161C310.501 339.612 309.819 331.837 309.273 328.972C308.727 326.107 307.773 319.969 307.773 319.969C307.773 319.969 296.315 323.516 287.311 323.788C278.308 324.061 275.171 324.743 270.123 323.515C265.075 322.287 258.392 320.514 257.846 320.105C257.3 319.696 254.163 318.196 254.708 320.105Z" fill="#263238" stroke="#263238" stroke-miterlimit="10" stroke-linecap="round" stroke-linejoin="round"/>
    <path d="M283.491 371.123L285.81 351.07" stroke="white" stroke-miterlimit="10" stroke-linecap="round" stroke-linejoin="round"/>
    <path d="M285.264 355.708L292.806 352.591" stroke="white" stroke-miterlimit="10" stroke-linecap="round" stroke-linejoin="round"/>
    <path d="M306.271 382.445L300.604 407.59" stroke="white" stroke-miterlimit="10" stroke-linecap="round" stroke-linejoin="round"/>
    <path d="M324.622 251.057C324.622 251.057 326.388 245.759 327.03 244.154C327.672 242.549 329.117 240.783 329.117 238.696C329.117 236.609 328.314 231.953 327.833 233.238C327.351 234.522 327.191 236.288 327.191 237.733C327.191 239.178 326.549 239.981 326.549 239.981C326.549 239.981 324.622 235.807 323.017 235.646C321.412 235.485 321.412 235.967 322.054 236.609C322.696 237.251 323.178 237.572 323.981 239.017C324.784 240.462 324.784 240.943 324.784 240.943C324.784 240.943 322.055 237.893 320.77 237.893C319.485 237.893 318.362 238.535 319.165 239.017C319.968 239.499 321.573 239.82 321.573 239.82L322.697 242.067C322.697 242.067 319.968 241.104 319.165 241.907C318.362 242.71 319.968 243.031 319.968 243.031L321.092 243.192C321.092 243.192 319.647 245.6 319.647 247.526C319.647 249.453 320.129 252.342 320.129 252.342L324.622 251.057Z" fill="white" stroke="#263238" stroke-miterlimit="10" stroke-linecap="round" stroke-linejoin="round"/>
    <path d="M321.893 248.328C321.893 248.328 322.535 245.278 323.338 243.993C324.141 242.709 326.067 241.906 327.191 240.622C328.315 239.338 328.957 237.411 329.76 238.214C330.563 239.017 329.921 240.461 329.118 241.585C328.315 242.709 325.586 245.599 325.426 248.167" fill="white"/>
    <path d="M321.893 248.328C321.893 248.328 322.535 245.278 323.338 243.993C324.141 242.709 326.067 241.906 327.191 240.622C328.315 239.338 328.957 237.411 329.76 238.214C330.563 239.017 329.921 240.461 329.118 241.585C328.315 242.709 325.586 245.599 325.426 248.167" stroke="#263238" stroke-miterlimit="10" stroke-linecap="round" stroke-linejoin="round"/>
    <path d="M318.843 255.712L319.164 250.896C319.164 250.896 320.448 250.093 322.535 250.254C324.622 250.415 325.264 251.217 325.264 251.217L325.424 256.515L318.843 255.712Z" fill="#3F7097" stroke="#263238" stroke-miterlimit="10" stroke-linecap="round" stroke-linejoin="round"/>
    <path d="M248.926 307.504C249.433 307.005 249.661 306.601 249.661 306.601C249.661 306.601 249.684 306.696 249.72 306.847C250.759 303.856 252.526 299.508 252.526 299.508C252.526 299.508 253.072 319.97 254.845 322.153C256.223 323.849 258.846 324.33 260.86 324.757C263.542 325.326 266.227 325.888 268.942 326.28C278.35 327.639 287.783 327.091 297.173 325.88C299.905 325.528 304.432 325.714 306.407 323.38C307.907 321.607 307.907 319.424 307.907 318.878C307.907 318.332 308.998 295.552 308.998 295.552C308.998 295.552 320.729 304.282 323.185 304.009C325.64 303.736 327.277 301.554 327.004 295.006C326.731 288.458 326.049 256.402 325.231 254.901C324.412 253.4 320.047 253.128 318.41 255.037C316.773 256.947 315.988 272.803 315.988 272.803C315.988 272.803 310.771 261.448 308.588 257.902C306.406 254.355 293.174 250.127 293.174 250.127C293.174 250.127 284.853 247.399 276.805 249.172C268.757 250.945 264.119 253.128 260.026 255.447C255.934 257.766 247.886 259.949 246.521 262.813C245.157 265.678 240.246 295.961 239.155 299.917C238.842 301.053 238.473 302.304 238.131 303.645C238.217 304.13 238.404 304.953 238.785 305.825" fill="#3F7097"/>
    <path d="M248.926 307.504C249.433 307.005 249.661 306.601 249.661 306.601C249.661 306.601 249.684 306.696 249.72 306.847C250.759 303.856 252.526 299.508 252.526 299.508C252.526 299.508 253.072 319.97 254.845 322.153C256.223 323.849 258.846 324.33 260.86 324.757C263.542 325.326 266.227 325.888 268.942 326.28C278.35 327.639 287.783 327.091 297.173 325.88C299.905 325.528 304.432 325.714 306.407 323.38C307.907 321.607 307.907 319.424 307.907 318.878C307.907 318.332 308.998 295.552 308.998 295.552C308.998 295.552 320.729 304.282 323.185 304.009C325.64 303.736 327.277 301.554 327.004 295.006C326.731 288.458 326.049 256.402 325.231 254.901C324.412 253.4 320.047 253.128 318.41 255.037C316.773 256.947 315.988 272.803 315.988 272.803C315.988 272.803 310.771 261.448 308.588 257.902C306.406 254.355 293.174 250.127 293.174 250.127C293.174 250.127 284.853 247.399 276.805 249.172C268.757 250.945 264.119 253.128 260.026 255.447C255.934 257.766 247.886 259.949 246.521 262.813C245.157 265.678 240.246 295.961 239.155 299.917C238.842 301.053 238.473 302.304 238.131 303.645C238.217 304.13 238.404 304.953 238.785 305.825" stroke="#263238" stroke-miterlimit="10" stroke-linecap="round" stroke-linejoin="round"/>
    <path d="M298.437 294.585L302.55 291.209" stroke="#263238" stroke-miterlimit="10"/>
    <path d="M270.889 317.199L295.121 297.307" stroke="#263238" stroke-miterlimit="10"/>
    <path d="M267.581 312.473L277.977 303.967" stroke="#263238" stroke-miterlimit="10"/>
    <path d="M249.717 318.526L243.68 329.671C243.199 330.559 243.031 331.583 243.203 332.578L246.319 350.581C246.405 351.078 247.093 351.142 247.269 350.669L252.831 335.722C253.072 335.074 253.154 334.377 253.07 333.691L251.252 318.817C251.156 318.024 250.098 317.824 249.717 318.526Z" fill="#263238" stroke="#263238" stroke-miterlimit="10" stroke-linecap="round" stroke-linejoin="round"/>
    <path d="M315.99 272.803L322.031 286.792" stroke="#263238" stroke-miterlimit="10" stroke-linecap="round" stroke-linejoin="round"/>
    <path d="M250.736 345.203C250.736 345.203 252.295 342.043 252.501 339.465C252.707 336.887 251.985 337.093 251.367 338.537C250.748 339.981 250.736 345.203 250.736 345.203Z" fill="white" stroke="#263238" stroke-miterlimit="10" stroke-linecap="round" stroke-linejoin="round"/>
    <path d="M247.863 349.923C247.863 349.923 250.326 347.05 250.736 345.203C251.146 343.356 252.173 339.662 251.146 340.073C250.12 340.483 249.709 342.536 249.709 342.536C249.709 342.536 248.273 341.715 247.862 343.357C247.452 344.998 247.863 349.923 247.863 349.923Z" fill="white" stroke="#263238" stroke-miterlimit="10" stroke-linecap="round" stroke-linejoin="round"/>
    <path d="M249.71 342.535C249.71 342.535 250.417 345.652 249.511 347.723" stroke="#263238" stroke-miterlimit="10" stroke-linecap="round" stroke-linejoin="round"/>
    <path d="M309 295.552L309.545 277.409" stroke="#263238" stroke-miterlimit="10" stroke-linecap="round" stroke-linejoin="round"/>
    <path d="M309.273 289.822L311.455 279.591" stroke="#263238" stroke-miterlimit="10" stroke-linecap="round" stroke-linejoin="round"/>
    <path d="M252.526 299.507L251.98 278.909" stroke="#263238" stroke-miterlimit="10" stroke-linecap="round" stroke-linejoin="round"/>
    <path d="M182.986 467.964C210.832 467.964 233.406 461.335 233.406 453.158C233.406 444.981 210.832 438.352 182.986 438.352C155.14 438.352 132.566 444.981 132.566 453.158C132.566 461.335 155.14 467.964 182.986 467.964Z" fill="#3F7097"/>
    <path opacity="0.5" d="M182.986 467.964C210.832 467.964 233.406 461.335 233.406 453.158C233.406 444.981 210.832 438.352 182.986 438.352C155.14 438.352 132.566 444.981 132.566 453.158C132.566 461.335 155.14 467.964 182.986 467.964Z" fill="white"/>
    <path d="M203.64 247.525C203.64 247.525 203.801 244.137 203.317 242.362C202.833 240.587 201.704 239.458 201.865 238.813C202.026 238.168 203.962 238.652 204.446 239.942C204.93 241.233 205.737 243.491 205.737 243.491C205.737 243.491 205.737 239.296 205.737 238.49C205.737 237.683 203.801 237.522 203.156 236.715C202.511 235.908 202.995 235.586 203.479 235.586C203.963 235.586 205.899 235.425 207.028 236.393C208.157 237.361 208.157 238.813 208.157 239.62C208.157 240.427 207.996 241.072 207.996 241.072C207.996 241.072 210.577 241.395 211.384 243.169C212.191 244.944 212.029 247.202 211.707 248.654C211.384 250.106 212.514 253.01 212.514 253.01L209.126 255.591C209.126 255.591 206.383 252.687 204.931 251.074C203.478 249.461 203.64 247.525 203.64 247.525Z" fill="white" stroke="#263238" stroke-miterlimit="10" stroke-linecap="round" stroke-linejoin="round"/>
    <path d="M212.513 253.01L209.125 255.591C209.125 255.591 227.77 293.613 229.544 294.903C231.319 296.194 233.577 296.516 236.159 292.967C238.74 289.418 238.418 287.159 236.643 283.126C234.868 279.093 212.513 253.01 212.513 253.01Z" fill="#3F7097" stroke="#263238" stroke-miterlimit="10" stroke-linecap="round" stroke-linejoin="round"/>
    <path d="M198.064 215.32C198.064 215.32 200.47 221.093 200.47 222.537C200.47 223.98 200.831 225.183 201.552 226.386C202.274 227.589 203.116 227.95 202.635 228.912C202.154 229.874 201.793 230.235 201.793 230.235C201.793 230.235 201.432 235.407 201.432 237.091C201.432 238.775 200.59 238.895 199.026 239.015C197.462 239.135 194.937 238.654 194.937 238.654L194.696 243.224C194.696 243.224 188.923 242.502 186.637 242.502C184.352 242.502 182.187 242.502 182.187 242.502L182.428 235.406C182.428 235.406 180.744 232.279 179.06 227.227C177.376 222.176 179.902 217.004 185.555 215.681C191.208 214.357 198.064 215.32 198.064 215.32Z" fill="white" stroke="#263238" stroke-miterlimit="10" stroke-linecap="round" stroke-linejoin="round"/>
    <path d="M193.975 229.151C193.975 229.151 196.501 228.429 196.02 226.264C195.539 224.099 194.697 223.137 194.817 222.776C194.937 222.415 196.862 221.693 196.862 220.13C196.862 218.566 194.817 217.724 194.817 217.724C194.817 217.724 203.717 214.958 204.319 212.432C204.92 209.906 203.718 207.38 201.312 207.38C198.906 207.38 198.185 207.741 197.704 207.741C197.223 207.741 194.096 204.253 191.329 205.576C188.563 206.899 188.322 208.583 188.322 208.583C188.322 208.583 178.219 209.064 174.37 213.153C170.521 217.242 173.769 226.744 176.415 230.232C179.061 233.72 181.106 237.449 183.511 237.93C185.917 238.411 190.367 237.689 192.051 235.404C193.735 233.119 192.893 229.631 192.893 229.631L193.975 229.151Z" fill="#263238" stroke="#263238" stroke-miterlimit="10" stroke-linecap="round" stroke-linejoin="round"/>
    <path d="M195.298 229.993C195.298 229.993 192.772 224.941 190.968 226.024C189.164 227.107 190.487 231.196 191.69 232.519C192.893 233.842 194.336 233.601 194.937 233" fill="white"/>
    <path d="M195.298 229.993C195.298 229.993 192.772 224.941 190.968 226.024C189.164 227.107 190.487 231.196 191.69 232.519C192.893 233.842 194.336 233.601 194.937 233" stroke="#263238" stroke-miterlimit="10" stroke-linecap="round" stroke-linejoin="round"/>
    <path d="M175.933 247.193C175.933 247.193 177.136 244.066 178.94 242.502C180.744 240.938 185.194 239.856 188.923 240.578C192.652 241.3 195.658 242.382 196.38 244.066C197.102 245.75 197.703 248.516 197.703 248.516C197.703 248.516 194.215 246.832 187.359 246.832C180.503 246.832 175.692 248.636 175.692 248.636L175.933 247.193Z" fill="#3F7097" stroke="#263238" stroke-miterlimit="10" stroke-linecap="round" stroke-linejoin="round"/>
    <path d="M160.359 444.997C160.359 444.997 155.791 444.636 153.868 445.117C151.945 445.598 151.464 447.281 152.305 448.483C153.147 449.685 154.95 451.849 156.152 452.81C157.354 453.772 161.201 454.252 162.884 455.094C164.567 455.936 166.611 456.657 168.894 455.094C171.178 453.531 169.856 447.641 169.856 447.641C169.856 447.641 164.206 448.603 160.359 444.997Z" fill="white" stroke="#263238" stroke-miterlimit="10" stroke-linecap="round" stroke-linejoin="round"/>
    <path d="M167.331 454.733C165.167 455.094 161.201 454.012 157.714 452.209C155.256 450.938 153.162 448 152.138 446.373C151.796 447.04 151.848 447.829 152.305 448.482C153.147 449.684 154.95 451.848 156.152 452.809C157.354 453.771 161.201 454.251 162.884 455.093C164.567 455.935 166.61 456.656 168.894 455.093C169.25 454.85 169.51 454.493 169.709 454.079C168.895 454.362 168.048 454.614 167.331 454.733Z" fill="white" stroke="#263238" stroke-miterlimit="10" stroke-linecap="round" stroke-linejoin="round"/>
    <path d="M206.382 444.997C206.382 444.997 210.95 444.636 212.873 445.117C214.796 445.598 215.277 447.281 214.436 448.483C213.595 449.685 211.791 451.849 210.589 452.81C209.387 453.772 205.54 454.252 203.857 455.094C202.174 455.936 200.131 456.657 197.847 455.094C195.563 453.531 196.885 447.641 196.885 447.641C196.885 447.641 202.535 448.603 206.382 444.997Z" fill="white" stroke="#263238" stroke-miterlimit="10" stroke-linecap="round" stroke-linejoin="round"/>
    <path d="M199.41 454.733C201.574 455.094 205.541 454.012 209.027 452.209C211.485 450.938 213.579 448 214.604 446.373C214.946 447.04 214.894 447.829 214.437 448.482C213.596 449.684 211.792 451.848 210.59 452.809C209.388 453.771 205.541 454.251 203.858 455.093C202.175 455.935 200.132 456.656 197.848 455.093C197.492 454.85 197.232 454.493 197.033 454.079C197.846 454.362 198.693 454.614 199.41 454.733Z" fill="white" stroke="#263238" stroke-miterlimit="10" stroke-linecap="round" stroke-linejoin="round"/>
    <path d="M167.393 312.142C167.393 312.142 166.431 323.328 166.311 328.379C166.191 333.431 166.912 338.121 166.912 338.121L164.506 384.307C164.506 384.307 160.898 414.015 160.898 419.909C160.898 425.803 161.379 441.198 161.379 441.198C161.379 441.198 160.056 443.844 159.936 444.445C159.816 445.046 160.176 448.655 160.176 448.655C160.176 448.655 163.303 450.579 166.31 450.82C169.317 451.061 170.279 448.896 170.52 448.535C170.761 448.174 171.242 443.243 171.362 441.559C171.482 439.875 171.242 437.349 171.242 437.349C171.242 437.349 176.534 411.49 179.06 402.71C181.586 393.93 186.156 370.115 186.397 366.988C186.637 363.861 189.404 349.307 189.404 349.307C189.404 349.307 191.809 375.407 192.411 380.338C193.012 385.269 191.544 398.957 191.544 406.324C191.544 413.691 195.956 442.268 195.956 442.268C195.956 442.268 195.956 445.833 196.194 446.783C196.432 447.734 197.858 451.061 197.858 451.061C197.858 451.061 201.423 451.774 203.086 450.823C204.749 449.872 207.364 448.209 207.601 445.357C207.839 442.505 206.754 436.743 206.516 435.079C206.278 433.415 210.556 401.333 210.556 389.927C210.556 378.52 212.457 353.805 212.457 348.577C212.457 343.349 211.269 325.763 211.269 325.763L209.13 308.89C209.13 308.89 189.346 316.344 167.393 312.142Z" fill="#263238" stroke="#263238" stroke-miterlimit="10" stroke-linecap="round" stroke-linejoin="round"/>
    <path d="M189.404 349.307L187.742 338.358H183.702" stroke="white" stroke-miterlimit="10" stroke-linecap="round" stroke-linejoin="round"/>
    <path d="M159.576 254.289C159.576 254.289 132.371 295.107 132.846 296.77C133.321 298.433 159.462 312.217 159.462 312.217L159.224 306.989L149.243 293.681L163.264 278.947L159.576 254.289Z" fill="#3F7097" stroke="#263238" stroke-miterlimit="10" stroke-linecap="round" stroke-linejoin="round"/>
    <path d="M159.224 306.989L162.984 305.442L167.017 308.991C167.017 308.991 168.414 311.903 167.393 312.141C166.372 312.379 166.372 312.379 166.372 312.379C166.372 312.379 167.501 315.122 165.727 315.928C163.952 316.735 161.371 315.767 160.242 314.799C159.113 313.831 157.983 311.411 157.983 311.411L159.224 306.989Z" fill="white" stroke="#263238" stroke-miterlimit="10" stroke-linecap="round" stroke-linejoin="round"/>
    <path d="M164.114 306.733C164.114 306.733 165.566 308.346 165.405 309.153C165.244 309.96 164.598 312.702 163.953 312.864C163.308 313.025 162.662 311.735 162.824 311.251C162.985 310.767 163.147 309.799 163.147 309.799C163.147 309.799 161.695 310.928 160.888 310.283" fill="white"/>
    <path d="M164.114 306.733C164.114 306.733 165.566 308.346 165.405 309.153C165.244 309.96 164.598 312.702 163.953 312.864C163.308 313.025 162.662 311.735 162.824 311.251C162.985 310.767 163.147 309.799 163.147 309.799C163.147 309.799 161.695 310.928 160.888 310.283" stroke="#263238" stroke-miterlimit="10" stroke-linecap="round" stroke-linejoin="round"/>
    <path d="M194.816 245.99C194.816 245.99 189.043 244.907 182.548 245.749C176.053 246.591 170.52 248.756 167.513 250.199C164.506 251.642 159.575 253.807 159.575 254.288C159.575 254.769 166.551 299.391 166.551 299.391C166.551 299.391 166.551 310.938 167.273 312.621C167.995 314.305 170.16 314.545 175.452 315.147C180.744 315.748 194.576 315.267 199.267 314.425C203.958 313.583 208.047 312.861 208.769 310.696C209.491 308.531 208.528 302.758 208.528 302.758L211.054 255.971C211.054 255.971 208.528 252.603 203.477 249.957C198.425 247.313 194.816 245.99 194.816 245.99Z" fill="#3F7097" stroke="#263238" stroke-miterlimit="10" stroke-linecap="round" stroke-linejoin="round"/>
    <path d="M234.223 282.159L211.054 255.973L209.431 281.767C209.431 281.767 227.368 297.05 231.401 296.566C235.434 296.082 236.158 292.968 236.158 292.968" fill="#3F7097"/>
    <path d="M234.223 282.159L211.054 255.973L209.431 281.767C209.431 281.767 227.368 297.05 231.401 296.566C235.434 296.082 236.158 292.968 236.158 292.968" stroke="#263238" stroke-miterlimit="10" stroke-linecap="round" stroke-linejoin="round"/>
</svg>
