<svg width="500" height="500" viewBox="0 0 500 500" fill="none" xmlns="http://www.w3.org/2000/svg">
    <path d="M30.7078 160.762C32.1018 159.92 33.5858 159.281 35.1158 158.846L36.0238 154.483L43.3958 154.354L44.4568 158.682C46.0018 159.063 47.5068 159.649 48.9298 160.442L52.6558 158L57.9598 163.121L55.6508 166.93C56.4938 168.324 57.1318 169.809 57.5668 171.339L61.9298 172.247L62.0598 179.619L57.7318 180.68C57.3508 182.224 56.7648 183.73 55.9718 185.152L58.4138 188.878L53.2928 194.182L49.4838 191.872C48.0898 192.714 46.6058 193.353 45.0748 193.787L44.1668 198.15L36.7948 198.279L35.7338 193.951C34.1888 193.57 32.6838 192.984 31.2608 192.191L27.5348 194.633L22.2308 189.512L24.5398 185.703C23.6978 184.309 23.0588 182.825 22.6238 181.294L18.2608 180.386L18.1318 173.014L22.4598 171.953C22.8408 170.408 23.4268 168.903 24.2198 167.48L21.7778 163.754L26.8988 158.45L30.7078 160.762ZM34.6378 170.583C31.6038 173.726 31.6918 178.733 34.8348 181.767C37.9768 184.801 42.9848 184.713 46.0188 181.57C49.0528 178.427 48.9648 173.42 45.8218 170.386C42.6788 167.352 37.6718 167.44 34.6378 170.583Z" fill="#F5F7F9"/>
    <path d="M286.142 37.1962C287.328 36.4792 288.591 35.9352 289.894 35.5652L290.667 31.8512L296.942 31.7412L297.845 35.4252C299.16 35.7492 300.441 36.2482 301.652 36.9232L304.823 34.8442L309.338 39.2032L307.372 42.4452C308.089 43.6322 308.633 44.8952 309.003 46.1982L312.716 46.9712L312.826 53.2462L309.142 54.1492C308.818 55.4642 308.319 56.7452 307.644 57.9562L309.722 61.1282L305.363 65.6432L302.121 63.6772C300.934 64.3942 299.671 64.9382 298.368 65.3072L297.595 69.0212L291.32 69.1312L290.417 65.4472C289.102 65.1232 287.821 64.6242 286.61 63.9492L283.439 66.0282L278.924 61.6692L280.89 58.4272C280.173 57.2402 279.629 55.9772 279.259 54.6742L275.545 53.9012L275.435 47.6262L279.119 46.7232C279.443 45.4082 279.942 44.1272 280.617 42.9162L278.539 39.7452L282.898 35.2302L286.142 37.1962ZM289.487 45.5552C286.904 48.2302 286.979 52.4922 289.654 55.0752C292.329 57.6582 296.591 57.5822 299.173 54.9072C301.755 52.2322 301.681 47.9702 299.006 45.3882C296.331 42.8052 292.069 42.8802 289.487 45.5552Z" fill="#F5F7F9"/>
    <path d="M114.388 41.861C116.315 40.697 118.367 39.814 120.482 39.212L121.737 33.179L131.929 33L133.396 38.984C135.532 39.51 137.613 40.321 139.58 41.417L144.731 38.04L152.064 45.121L148.871 50.386C150.036 52.314 150.919 54.366 151.52 56.482L157.552 57.737L157.731 67.929L151.747 69.396C151.221 71.531 150.41 73.612 149.314 75.579L152.69 80.731L145.61 88.065L140.344 84.872C138.417 86.037 136.365 86.919 134.249 87.52L132.993 93.553L122.801 93.732L121.336 87.75C119.2 87.223 117.119 86.413 115.152 85.317L110.001 88.694L102.667 81.613L105.86 76.347C104.695 74.42 103.812 72.368 103.211 70.252L97.179 68.997L97 58.805L102.984 57.338C103.51 55.203 104.321 53.121 105.417 51.155L102.041 46.004L109.121 38.671L114.388 41.861ZM119.821 55.439C115.626 59.784 115.748 66.707 120.093 70.902C124.438 75.097 131.361 74.975 135.555 70.63C139.749 66.285 139.628 59.362 135.283 55.168C130.939 50.972 124.016 51.094 119.821 55.439Z" fill="#F5F7F9"/>
    <path d="M238.383 215.982C239.777 215.14 241.261 214.501 242.791 214.066L243.699 209.703L251.071 209.574L252.132 213.902C253.677 214.283 255.182 214.869 256.605 215.662L260.331 213.22L265.635 218.341L263.326 222.15C264.169 223.544 264.807 225.029 265.242 226.559L269.605 227.467L269.735 234.839L265.407 235.9C265.026 237.444 264.44 238.95 263.647 240.372L266.089 244.098L260.968 249.402L257.159 247.092C255.765 247.934 254.281 248.573 252.75 249.007L251.842 253.37L244.47 253.499L243.409 249.171C241.864 248.79 240.359 248.204 238.936 247.411L235.21 249.853L229.906 244.732L232.215 240.923C231.373 239.529 230.734 238.045 230.299 236.514L225.936 235.606L225.807 228.234L230.135 227.173C230.516 225.629 231.102 224.123 231.895 222.7L229.453 218.974L234.574 213.67L238.383 215.982ZM242.313 225.803C239.279 228.946 239.367 233.953 242.51 236.987C245.652 240.021 250.66 239.933 253.694 236.79C256.728 233.647 256.64 228.64 253.497 225.606C250.354 222.572 245.347 222.66 242.313 225.803Z" fill="#F5F7F9"/>
    <path d="M259.148 347.918C260.542 347.076 262.026 346.437 263.556 346.002L264.464 341.639L271.836 341.51L272.897 345.838C274.442 346.219 275.947 346.805 277.37 347.598L281.096 345.156L286.4 350.278L284.091 354.087C284.934 355.481 285.572 356.966 286.007 358.496L290.37 359.404L290.5 366.776L286.172 367.837C285.791 369.381 285.205 370.887 284.412 372.309L286.854 376.035L281.733 381.339L277.924 379.029C276.53 379.871 275.046 380.51 273.515 380.944L272.607 385.307L265.235 385.436L264.174 381.108C262.629 380.727 261.124 380.141 259.701 379.348L255.975 381.79L250.671 376.669L252.98 372.86C252.138 371.466 251.499 369.982 251.064 368.451L246.701 367.543L246.572 360.171L250.9 359.11C251.281 357.565 251.867 356.06 252.66 354.637L250.218 350.911L255.339 345.607L259.148 347.918ZM263.078 357.738C260.044 360.881 260.132 365.888 263.275 368.922C266.417 371.956 271.425 371.868 274.459 368.725C277.493 365.582 277.405 360.575 274.262 357.541C271.119 354.508 266.112 354.596 263.078 357.738Z" fill="#F5F7F9"/>
    <path d="M82.1597 265.357C83.0997 264.789 84.0997 264.359 85.1317 264.065L85.7437 261.123L90.7147 261.036L91.4297 263.954C92.4717 264.211 93.4867 264.606 94.4457 265.141L96.9577 263.494L100.535 266.947L98.9777 269.515C99.5457 270.455 99.9767 271.456 100.27 272.488L103.212 273.1L103.299 278.071L100.381 278.787C100.124 279.828 99.7287 280.843 99.1937 281.803L100.84 284.315L97.3867 287.892L94.8187 286.335C93.8787 286.903 92.8777 287.334 91.8457 287.627L91.2337 290.569L86.2627 290.656L85.5477 287.737C84.5057 287.48 83.4917 287.085 82.5317 286.55L80.0197 288.197L76.4427 284.744L77.9997 282.176C77.4317 281.236 77.0007 280.236 76.7077 279.203L73.7657 278.591L73.6787 273.62L76.5977 272.904C76.8547 271.863 77.2497 270.848 77.7847 269.888L76.1377 267.376L79.5907 263.799L82.1597 265.357ZM84.8097 271.979C82.7637 274.098 82.8227 277.474 84.9427 279.52C87.0617 281.566 90.4377 281.506 92.4837 279.387C94.5297 277.268 94.4697 273.892 92.3507 271.846C90.2317 269.801 86.8557 269.86 84.8097 271.979Z" fill="#F5F7F9"/>
    <path d="M89.541 303.661C91.254 302.626 93.078 301.841 94.959 301.306L96.075 295.943L105.136 295.784L106.44 301.104C108.339 301.572 110.189 302.292 111.938 303.267L116.517 300.265L123.037 306.56L120.199 311.241C121.235 312.955 122.02 314.779 122.554 316.66L127.916 317.776L128.075 326.837L122.755 328.141C122.287 330.039 121.567 331.889 120.592 333.638L123.593 338.218L117.299 344.738L112.617 341.899C110.903 342.935 109.079 343.719 107.198 344.254L106.082 349.617L97.021 349.776L95.717 344.456C93.818 343.988 91.968 343.267 90.219 342.293L85.64 345.295L79.12 339L81.959 334.318C80.924 332.604 80.138 330.781 79.604 328.899L74.241 327.783L74.082 318.722L79.402 317.417C79.87 315.519 80.591 313.668 81.565 311.92L78.563 307.34L84.857 300.82L89.541 303.661ZM94.371 315.732C90.641 319.595 90.75 325.749 94.613 329.479C98.475 333.208 104.63 333.1 108.359 329.237C112.088 325.374 111.98 319.22 108.117 315.49C104.255 311.761 98.101 311.87 94.371 315.732Z" fill="#F5F7F9"/>
    <path d="M478.688 46.083H341.151V277.829H478.688V46.083Z" fill="#8799AC"/>
    <path d="M474.514 50.436H344.857V274.019H474.514V50.436Z" fill="#F5F7F9"/>
    <path d="M461.385 62.3809H409.685V142.606H461.385V62.3809Z" fill="white"/>
    <path d="M438.285 69.4739C438.285 70.5399 437.421 71.4039 436.355 71.4039C435.289 71.4039 434.425 70.5399 434.425 69.4739C434.425 68.4079 435.289 67.5439 436.355 67.5439C437.421 67.5449 438.285 68.4089 438.285 69.4739Z" fill="#8799AC"/>
    <path d="M409.282 164.934H357.582V245.159H409.282V164.934Z" fill="white"/>
    <path d="M386.182 172.026C386.182 173.092 385.318 173.956 384.252 173.956C383.186 173.956 382.322 173.092 382.322 172.026C382.322 170.96 383.186 170.096 384.252 170.096C385.318 170.097 386.182 170.961 386.182 172.026Z" fill="#8799AC"/>
    <path d="M401.037 62.3809H356.882V125.028H401.037V62.3809Z" fill="white"/>
    <path d="M380.562 68.0708C380.562 68.9558 379.844 69.6738 378.959 69.6738C378.074 69.6738 377.356 68.9568 377.356 68.0708C377.356 67.1858 378.074 66.4678 378.959 66.4678C379.845 66.4678 380.562 67.1858 380.562 68.0708Z" fill="#8799AC"/>
    <path d="M463.086 166.037L415.866 171.364L418.817 197.527L466.038 192.2L463.086 166.037Z" fill="white"/>
    <path d="M440.034 175.296C440.937 175.296 441.669 174.564 441.669 173.661C441.669 172.758 440.937 172.026 440.034 172.026C439.131 172.026 438.399 172.758 438.399 173.661C438.399 174.564 439.131 175.296 440.034 175.296Z" fill="#8799AC"/>
    <path d="M402.384 183.232C402.384 183.445 394.266 183.617 384.253 183.617C374.237 183.617 366.12 183.445 366.12 183.232C366.12 183.019 374.237 182.847 384.253 182.847C394.266 182.847 402.384 183.02 402.384 183.232Z" fill="#8799AC"/>
    <path d="M402.384 188.972C402.384 189.185 394.266 189.357 384.253 189.357C374.237 189.357 366.12 189.185 366.12 188.972C366.12 188.76 374.237 188.587 384.253 188.587C394.266 188.587 402.384 188.76 402.384 188.972Z" fill="#8799AC"/>
    <path d="M402.384 194.712C402.384 194.925 394.266 195.097 384.253 195.097C374.237 195.097 366.12 194.925 366.12 194.712C366.12 194.499 374.237 194.327 384.253 194.327C394.266 194.327 402.384 194.499 402.384 194.712Z" fill="#8799AC"/>
    <path d="M402.384 200.452C402.384 200.665 394.266 200.837 384.253 200.837C374.237 200.837 366.12 200.665 366.12 200.452C366.12 200.239 374.237 200.067 384.253 200.067C394.266 200.067 402.384 200.239 402.384 200.452Z" fill="#8799AC"/>
    <path d="M402.384 206.192C402.384 206.405 394.266 206.577 384.253 206.577C374.237 206.577 366.12 206.404 366.12 206.192C366.12 205.979 374.237 205.807 384.253 205.807C394.266 205.807 402.384 205.979 402.384 206.192Z" fill="#8799AC"/>
    <path d="M402.384 211.932C402.384 212.145 394.266 212.317 384.253 212.317C374.237 212.317 366.12 212.144 366.12 211.932C366.12 211.72 374.237 211.547 384.253 211.547C394.266 211.546 402.384 211.719 402.384 211.932Z" fill="#8799AC"/>
    <path d="M402.384 217.671C402.384 217.884 394.266 218.056 384.253 218.056C374.237 218.056 366.12 217.883 366.12 217.671C366.12 217.459 374.237 217.286 384.253 217.286C394.266 217.286 402.384 217.459 402.384 217.671Z" fill="#8799AC"/>
    <path d="M458.66 177.084C458.69 177.295 450.675 178.6 440.761 179.999C430.844 181.399 422.783 182.362 422.753 182.151C422.723 181.941 430.736 180.636 440.654 179.236C450.567 177.837 458.63 176.873 458.66 177.084Z" fill="#8799AC"/>
    <path d="M459.38 180.674C459.41 180.885 451.395 182.19 441.481 183.589C431.563 184.989 423.502 185.952 423.473 185.741C423.443 185.53 431.456 184.226 441.374 182.826C451.288 181.427 459.351 180.463 459.38 180.674Z" fill="#8799AC"/>
    <path d="M460.039 183.989C460.069 184.2 452.054 185.505 442.14 186.904C432.223 188.303 424.161 189.267 424.132 189.056C424.102 188.845 432.115 187.54 442.033 186.141C451.946 184.742 460.009 183.778 460.039 183.989Z" fill="#8799AC"/>
    <path d="M456.839 79.1638C456.839 79.3768 447.667 79.5488 436.356 79.5488C425.041 79.5488 415.871 79.3768 415.871 79.1638C415.871 78.9508 425.041 78.7788 436.356 78.7788C447.668 78.7788 456.839 78.9518 456.839 79.1638Z" fill="#8799AC"/>
    <path d="M456.839 82.5769C456.839 82.7899 447.667 82.9619 436.356 82.9619C425.041 82.9619 415.871 82.7899 415.871 82.5769C415.871 82.3639 425.041 82.1919 436.356 82.1919C447.668 82.1919 456.839 82.3639 456.839 82.5769Z" fill="#8799AC"/>
    <path d="M456.839 85.99C456.839 86.203 447.667 86.375 436.356 86.375C425.041 86.375 415.871 86.202 415.871 85.99C415.871 85.777 425.041 85.605 436.356 85.605C447.668 85.605 456.839 85.777 456.839 85.99Z" fill="#8799AC"/>
    <path d="M456.839 89.4031C456.839 89.6161 447.667 89.7881 436.356 89.7881C425.041 89.7881 415.871 89.6151 415.871 89.4031C415.871 89.1901 425.041 89.0181 436.356 89.0181C447.668 89.0181 456.839 89.1901 456.839 89.4031Z" fill="#8799AC"/>
    <path d="M456.839 92.8162C456.839 93.0292 447.667 93.2012 436.356 93.2012C425.041 93.2012 415.871 93.0292 415.871 92.8162C415.871 92.6032 425.041 92.4312 436.356 92.4312C447.668 92.4302 456.839 92.6032 456.839 92.8162Z" fill="#8799AC"/>
    <path d="M456.839 96.2278C456.839 96.4408 447.667 96.6128 436.356 96.6128C425.041 96.6128 415.871 96.4398 415.871 96.2278C415.871 96.0158 425.041 95.8428 436.356 95.8428C447.668 95.8428 456.839 96.0158 456.839 96.2278Z" fill="#8799AC"/>
    <path d="M456.839 99.6409C456.839 99.8539 447.667 100.026 436.356 100.026C425.041 100.026 415.871 99.8539 415.871 99.6409C415.871 99.4279 425.041 99.2559 436.356 99.2559C447.668 99.2559 456.839 99.4289 456.839 99.6409Z" fill="#8799AC"/>
    <path d="M456.839 109.769C456.839 109.982 447.667 110.154 436.356 110.154C425.041 110.154 415.871 109.982 415.871 109.769C415.871 109.556 425.041 109.384 436.356 109.384C447.668 109.384 456.839 109.557 456.839 109.769Z" fill="#8799AC"/>
    <path d="M457.128 113.374C457.128 113.587 447.957 113.759 436.645 113.759C425.33 113.759 416.16 113.587 416.16 113.374C416.16 113.161 425.33 112.989 436.645 112.989C447.956 112.989 457.128 113.161 457.128 113.374Z" fill="#8799AC"/>
    <path d="M457.416 116.979C457.416 117.192 448.244 117.364 436.933 117.364C425.618 117.364 416.448 117.192 416.448 116.979C416.448 116.766 425.618 116.594 436.933 116.594C448.245 116.594 457.416 116.766 457.416 116.979Z" fill="#8799AC"/>
    <path d="M457.705 120.584C457.705 120.797 448.533 120.969 437.222 120.969C425.907 120.969 416.737 120.797 416.737 120.584C416.737 120.371 425.907 120.199 437.222 120.199C448.533 120.198 457.705 120.371 457.705 120.584Z" fill="#8799AC"/>
    <path d="M457.993 124.188C457.993 124.401 448.821 124.573 437.51 124.573C426.195 124.573 417.025 124.4 417.025 124.188C417.025 123.975 426.195 123.803 437.51 123.803C448.821 123.803 457.993 123.976 457.993 124.188Z" fill="#8799AC"/>
    <path d="M458.282 127.793C458.282 128.006 449.11 128.178 437.799 128.178C426.484 128.178 417.314 128.006 417.314 127.793C417.314 127.58 426.484 127.408 437.799 127.408C449.11 127.408 458.282 127.58 458.282 127.793Z" fill="#8799AC"/>
    <path d="M15.876 445.461L68.66 409.818L324.407 408.595L336.113 445.996L15.876 445.461Z" fill="#144B78"/>
    <path d="M335.447 460.064L15.3511 459.831V444.763L335.588 445.764L335.447 460.064Z" fill="#144B78"/>
    <path d="M327.596 445.678C327.596 445.822 258.475 445.906 173.23 445.865C87.9551 445.824 18.8491 445.675 18.8491 445.531C18.8491 445.387 87.9551 445.303 173.23 445.344C258.475 445.385 327.596 445.534 327.596 445.678Z" fill="#263238"/>
    <path d="M247.969 115.069H197.715C194.242 115.069 191.427 112.254 191.427 108.781V39.2231C191.427 35.7501 194.242 32.9351 197.715 32.9351H229.586L254.257 58.3631V108.781C254.257 112.254 251.442 115.069 247.969 115.069Z" fill="#79B5BE"/>
    <g opacity="0.2">
        <path d="M247.779 115.069H197.906C194.328 115.069 191.427 112.168 191.427 108.59V91.3869C191.427 90.7029 191.982 90.1479 192.666 90.1479H253.018C253.702 90.1479 254.257 90.7029 254.257 91.3869V108.59C254.257 112.168 251.357 115.069 247.779 115.069Z" fill="black"/>
    </g>
    <g opacity="0.2">
        <path d="M229.587 32.9351V52.5111C229.587 55.7411 232.205 58.3591 235.434 58.3591L254.257 58.3621L229.587 32.9351Z" fill="white"/>
    </g>
    <g opacity="0.2">
        <path d="M229.844 54.229C229.844 54.229 229.596 58.977 235.002 60.538C235.205 60.597 235.413 60.64 235.621 60.677C238.079 61.116 254.258 63.994 254.258 63.623C254.258 63.221 254.258 58.362 254.258 58.362H235.435C235.435 58.362 230.734 58.202 229.844 54.229Z" fill="black"/>
    </g>
    <path d="M318.342 165.565H267.329C263.804 165.565 260.946 162.707 260.946 159.182V88.5729C260.946 85.0479 263.804 82.1899 267.329 82.1899H299.682L324.726 108.002V159.182C324.725 162.707 321.867 165.565 318.342 165.565Z" fill="#79B5BE"/>
    <g opacity="0.2">
        <path d="M317.828 165.565H267.842C264.033 165.565 260.945 162.477 260.945 158.668V140.267H324.724V158.668C324.725 162.477 321.637 165.565 317.828 165.565Z" fill="black"/>
    </g>
    <g opacity="0.2">
        <path d="M299.681 82.1899V102.062C299.681 105.34 302.338 107.998 305.617 107.999L324.725 108.002L299.681 82.1899Z" fill="white"/>
    </g>
    <g opacity="0.2">
        <path d="M299.942 103.806C299.942 103.806 299.691 108.626 305.178 110.21C305.384 110.269 305.595 110.314 305.806 110.352C308.301 110.798 324.725 113.719 324.725 113.342C324.725 112.934 324.725 108.002 324.725 108.002H305.617C305.617 108.002 300.846 107.839 299.942 103.806Z" fill="black"/>
    </g>
    <path d="M287.139 119.378L279.483 122.183L287.139 124.965V127.839L276.195 123.678V120.689L287.139 116.527V119.378Z" fill="#FAFAFA"/>
    <path d="M295.366 110.871H298.562L290.974 132.529H287.778L295.366 110.871Z" fill="#FAFAFA"/>
    <path d="M309.917 120.688V123.677L298.973 127.838V124.964L306.629 122.182L298.973 119.377V116.526L309.917 120.688Z" fill="#FAFAFA"/>
    <path d="M284.534 149.682V158.254H282.551V154.739H278.657V158.254H276.674V149.682H278.657V153.062H282.551V149.682H284.534Z" fill="#FAFAFA"/>
    <path d="M288.341 151.298H285.598V149.682H293.068V151.298H290.325V158.254H288.341V151.298Z" fill="#FAFAFA"/>
    <path d="M301.932 158.254L301.92 153.111L299.397 157.348H298.503L295.993 153.221V158.254H294.132V149.682H295.773L298.982 155.009L302.141 149.682H303.77L303.794 158.254H301.932Z" fill="#FAFAFA"/>
    <path d="M138.712 267.519H46.0902C44.4012 267.519 43.0322 266.15 43.0322 264.461V111.427C43.0322 109.738 44.4012 108.369 46.0902 108.369H138.711C140.4 108.369 141.769 109.738 141.769 111.427V264.461C141.769 266.15 140.4 267.519 138.712 267.519Z" fill="white"/>
    <path d="M141.769 126.152H43.0322V111.977C43.0322 109.985 44.6472 108.37 46.6392 108.37H138.297C140.214 108.37 141.769 109.924 141.769 111.842V126.152Z" fill="#8799AC"/>
    <path d="M138.457 267.519C138.45 267.489 138.922 267.563 139.73 267.236C140.125 267.066 140.588 266.765 140.995 266.272C141.388 265.776 141.717 265.068 141.716 264.226C141.705 260.819 141.689 255.811 141.668 249.365C141.648 236.45 141.62 217.777 141.585 194.707C141.569 171.628 141.55 144.151 141.529 113.642L141.528 112.21C141.53 111.719 141.538 111.279 141.41 110.85C141.179 109.989 140.534 109.254 139.72 108.886C139.312 108.699 138.868 108.607 138.412 108.612L136.958 108.613C135.987 108.613 135.013 108.614 134.037 108.614C130.131 108.615 126.18 108.617 122.188 108.618C114.202 108.62 106.049 108.622 97.749 108.625C81.148 108.627 63.96 108.628 46.356 108.63C45.334 108.622 44.342 109.159 43.79 110.013C43.519 110.438 43.339 110.926 43.305 111.431C43.279 111.936 43.298 112.514 43.292 113.052C43.292 115.24 43.292 117.421 43.292 119.595C43.292 123.943 43.291 128.262 43.291 132.549C43.29 141.124 43.288 149.574 43.287 157.876C43.282 174.481 43.277 190.497 43.272 205.755C43.264 221.012 43.256 235.511 43.248 249.08C43.246 252.472 43.243 255.806 43.241 259.079C43.24 260.716 43.238 262.337 43.237 263.943C43.106 265.501 44.223 266.957 45.697 267.249C46.405 267.375 47.233 267.295 48 267.319C48.779 267.32 49.555 267.32 50.326 267.321C51.868 267.322 53.395 267.324 54.904 267.325C57.923 267.328 60.877 267.331 63.761 267.334C86.832 267.369 105.502 267.397 118.416 267.417C124.862 267.438 129.869 267.455 133.275 267.466C134.967 267.477 136.259 267.486 137.139 267.492C138.011 267.501 138.457 267.519 138.457 267.519C138.457 267.519 138.011 267.537 137.14 267.546C136.26 267.552 134.967 267.56 133.276 267.572C129.87 267.583 124.863 267.6 118.417 267.621C105.503 267.641 86.832 267.669 63.762 267.704C60.877 267.707 57.924 267.71 54.905 267.713C53.395 267.714 51.869 267.716 50.327 267.717C49.556 267.718 48.78 267.718 48.001 267.719C47.214 267.692 46.461 267.785 45.614 267.644C44.795 267.473 44.044 266.992 43.537 266.317C43.023 265.653 42.778 264.763 42.828 263.944C42.827 262.338 42.826 260.717 42.824 259.08C42.822 255.807 42.819 252.473 42.817 249.081C42.81 235.512 42.802 221.013 42.793 205.756C42.788 190.498 42.783 174.482 42.778 157.877C42.777 149.574 42.775 141.125 42.774 132.55C42.774 128.262 42.773 123.943 42.773 119.596C42.773 117.422 42.773 115.241 42.773 113.053C42.78 112.497 42.759 111.979 42.787 111.39C42.828 110.8 43.038 110.226 43.356 109.729C43.998 108.73 45.167 108.099 46.357 108.11C63.961 108.112 81.149 108.114 97.75 108.115C106.05 108.117 114.204 108.119 122.189 108.121C126.182 108.122 130.132 108.124 134.038 108.125C135.014 108.125 135.988 108.126 136.959 108.126H138.413C138.926 108.121 139.451 108.227 139.92 108.444C140.863 108.871 141.607 109.721 141.874 110.719C142.022 111.215 142.012 111.747 142.009 112.209L142.008 113.641C141.987 144.15 141.968 171.627 141.952 194.706C141.917 217.777 141.889 236.449 141.869 249.364C141.847 255.811 141.831 260.819 141.819 264.226C141.811 265.096 141.463 265.82 141.054 266.322C140.631 266.821 140.154 267.121 139.749 267.285C139.341 267.454 139.006 267.487 138.789 267.515C138.569 267.523 138.457 267.519 138.457 267.519Z" fill="#263238"/>
    <path d="M57.5863 118.647C57.5863 120.256 56.2823 121.56 54.6733 121.56C53.0643 121.56 51.7603 120.256 51.7603 118.647C51.7603 117.038 53.0643 115.734 54.6733 115.734C56.2823 115.734 57.5863 117.038 57.5863 118.647Z" fill="white"/>
    <path d="M63.6352 121.56C65.244 121.56 66.5482 120.256 66.5482 118.647C66.5482 117.038 65.244 115.734 63.6352 115.734C62.0264 115.734 60.7222 117.038 60.7222 118.647C60.7222 120.256 62.0264 121.56 63.6352 121.56Z" fill="white"/>
    <path d="M72.5981 121.56C74.2069 121.56 75.5111 120.256 75.5111 118.647C75.5111 117.038 74.2069 115.734 72.5981 115.734C70.9893 115.734 69.6851 117.038 69.6851 118.647C69.6851 120.256 70.9893 121.56 72.5981 121.56Z" fill="white"/>
    <path d="M85.9958 150.264H67.8129C66.7229 150.264 65.8398 149.381 65.8398 148.291C65.8398 147.201 66.7229 146.318 67.8129 146.318H85.9958C87.0858 146.318 87.9688 147.201 87.9688 148.291C87.9688 149.381 87.0858 150.264 85.9958 150.264Z" fill="#263238"/>
    <path d="M85.9958 160.591H67.8129C66.7229 160.591 65.8398 159.708 65.8398 158.618C65.8398 157.528 66.7229 156.645 67.8129 156.645H85.9958C87.0858 156.645 87.9688 157.528 87.9688 158.618C87.9688 159.708 87.0858 160.591 85.9958 160.591Z" fill="#8799AC"/>
    <path d="M86.5169 188.878H68.3329C67.2429 188.878 66.3599 187.995 66.3599 186.905C66.3599 185.815 67.2429 184.932 68.3329 184.932H86.5159C87.6059 184.932 88.4889 185.815 88.4889 186.905C88.4889 187.995 87.6059 188.878 86.5169 188.878Z" fill="#8799AC"/>
    <path d="M85.9958 171.264H67.8129C66.7229 171.264 65.8398 170.381 65.8398 169.291C65.8398 168.201 66.7229 167.318 67.8129 167.318H85.9958C87.0858 167.318 87.9688 168.201 87.9688 169.291C87.9688 170.38 87.0858 171.264 85.9958 171.264Z" fill="#79B5BE"/>
    <path d="M85.9958 230.775H67.8129C66.7229 230.775 65.8398 229.892 65.8398 228.802C65.8398 227.713 66.7229 226.829 67.8129 226.829H85.9958C87.0858 226.829 87.9688 227.712 87.9688 228.802C87.9688 229.892 87.0858 230.775 85.9958 230.775Z" fill="#79B5BE"/>
    <path d="M115.127 150.264H96.9442C95.8542 150.264 94.9712 149.381 94.9712 148.291C94.9712 147.201 95.8542 146.318 96.9442 146.318H115.127C116.217 146.318 117.1 147.201 117.1 148.291C117.1 149.381 116.217 150.264 115.127 150.264Z" fill="#455A64"/>
    <path d="M134.817 160.591H96.7752C95.7792 160.591 94.9712 159.708 94.9712 158.618C94.9712 157.528 95.7782 156.645 96.7752 156.645H134.817C135.813 156.645 136.62 157.528 136.62 158.618C136.62 159.708 135.813 160.591 134.817 160.591Z" fill="#263238"/>
    <path d="M133.793 171.264H95.4893C94.4653 171.264 93.6343 170.381 93.6343 169.291C93.6343 168.201 94.4643 167.318 95.4893 167.318H133.793C134.817 167.318 135.648 168.201 135.648 169.291C135.648 170.38 134.818 171.264 133.793 171.264Z" fill="#8799AC"/>
    <path d="M106.123 179.894H67.8179C66.7939 179.894 65.9629 179.011 65.9629 177.921C65.9629 176.832 66.7929 175.948 67.8179 175.948H106.122C107.146 175.948 107.977 176.831 107.977 177.921C107.977 179.01 107.147 179.894 106.123 179.894Z" fill="#8799AC"/>
    <path d="M58.9001 148.292C58.9001 149.399 58.0031 150.296 56.8961 150.296C55.7891 150.296 54.8921 149.399 54.8921 148.292C54.8921 147.185 55.7891 146.288 56.8961 146.288C58.0031 146.288 58.9001 147.185 58.9001 148.292Z" fill="#455A64"/>
    <path d="M58.9001 138.409C58.9001 139.516 58.0031 140.413 56.8961 140.413C55.7891 140.413 54.8921 139.516 54.8921 138.409C54.8921 137.302 55.7891 136.405 56.8961 136.405C58.0031 136.405 58.9001 137.302 58.9001 138.409Z" fill="#455A64"/>
    <path d="M58.9001 158.587C58.9001 159.694 58.0031 160.591 56.8961 160.591C55.7891 160.591 54.8921 159.694 54.8921 158.587C54.8921 157.48 55.7891 156.583 56.8961 156.583C58.0031 156.583 58.9001 157.481 58.9001 158.587Z" fill="#455A64"/>
    <path d="M58.9001 169.291C58.9001 170.398 58.0031 171.295 56.8961 171.295C55.7891 171.295 54.8921 170.398 54.8921 169.291C54.8921 168.184 55.7891 167.287 56.8961 167.287C58.0031 167.287 58.9001 168.184 58.9001 169.291Z" fill="#455A64"/>
    <path d="M86.5169 217.76H68.3329C67.2429 217.76 66.3599 216.877 66.3599 215.787C66.3599 214.697 67.2429 213.814 68.3329 213.814H86.5159C87.6059 213.814 88.4889 214.697 88.4889 215.787C88.4889 216.876 87.6059 217.76 86.5169 217.76Z" fill="#8799AC"/>
    <path d="M85.9958 200.145H67.8129C66.7229 200.145 65.8398 199.262 65.8398 198.172C65.8398 197.083 66.7229 196.199 67.8129 196.199H85.9958C87.0858 196.199 87.9688 197.082 87.9688 198.172C87.9688 199.261 87.0858 200.145 85.9958 200.145Z" fill="#79B5BE"/>
    <path d="M133.793 200.145H95.4893C94.4653 200.145 93.6343 199.262 93.6343 198.172C93.6343 197.083 94.4643 196.199 95.4893 196.199H133.793C134.817 196.199 135.648 197.082 135.648 198.172C135.648 199.261 134.818 200.145 133.793 200.145Z" fill="#8799AC"/>
    <path d="M106.123 208.775H67.8179C66.7939 208.775 65.9629 207.892 65.9629 206.802C65.9629 205.712 66.7929 204.829 67.8179 204.829H106.122C107.146 204.829 107.977 205.712 107.977 206.802C107.977 207.892 107.147 208.775 106.123 208.775Z" fill="#8799AC"/>
    <path d="M58.9001 198.172C58.9001 199.279 58.0031 200.176 56.8961 200.176C55.7891 200.176 54.8921 199.279 54.8921 198.172C54.8921 197.065 55.7891 196.168 56.8961 196.168C58.0031 196.168 58.9001 197.065 58.9001 198.172Z" fill="#455A64"/>
    <path d="M78.2902 140.792H66.9062C66.3772 140.792 65.9482 140.363 65.9482 139.834V137.945C65.9482 137.416 66.3772 136.987 66.9062 136.987H78.2902C78.8192 136.987 79.2482 137.416 79.2482 137.945V139.834C79.2482 140.363 78.8192 140.792 78.2902 140.792Z" fill="#455A64"/>
    <path d="M85.9958 241.291H67.8129C66.7229 241.291 65.8398 240.408 65.8398 239.318C65.8398 238.229 66.7229 237.345 67.8129 237.345H85.9958C87.0858 237.345 87.9688 238.228 87.9688 239.318C87.9688 240.408 87.0858 241.291 85.9958 241.291Z" fill="#263238"/>
    <path d="M115.127 241.291H96.9442C95.8542 241.291 94.9712 240.408 94.9712 239.318C94.9712 238.229 95.8542 237.345 96.9442 237.345H115.127C116.217 237.345 117.1 238.228 117.1 239.318C117.1 240.408 116.217 241.291 115.127 241.291Z" fill="#455A64"/>
    <path d="M58.9001 239.318C58.9001 240.425 58.0031 241.322 56.8961 241.322C55.7891 241.322 54.8921 240.425 54.8921 239.318C54.8921 238.211 55.7891 237.314 56.8961 237.314C58.0031 237.314 58.9001 238.211 58.9001 239.318Z" fill="#455A64"/>
    <path d="M58.9001 248.822C58.9001 249.929 58.0031 250.826 56.8961 250.826C55.7891 250.826 54.8921 249.929 54.8921 248.822C54.8921 247.715 55.7891 246.818 56.8961 246.818C58.0031 246.818 58.9001 247.715 58.9001 248.822Z" fill="#455A64"/>
    <path d="M78.2902 251.204H66.9062C66.3772 251.204 65.9482 250.775 65.9482 250.246V248.357C65.9482 247.828 66.3772 247.399 66.9062 247.399H78.2902C78.8192 247.399 79.2482 247.828 79.2482 248.357V250.246C79.2482 250.775 78.8192 251.204 78.2902 251.204Z" fill="#455A64"/>
    <path d="M328.713 242.954H148.363V357.676H328.713V242.954Z" fill="white"/>
    <path d="M180.845 242.954H148.363V357.676H180.845V242.954Z" fill="#8799AC" fill-opacity="0.3"/>
    <path d="M162.638 255.335C162.809 255.232 162.991 255.153 163.179 255.1L163.29 254.565L164.194 254.549L164.324 255.08C164.513 255.127 164.698 255.199 164.873 255.296L165.33 254.996L165.981 255.624L165.698 256.091C165.801 256.262 165.88 256.444 165.933 256.632L166.468 256.743L166.484 257.647L165.953 257.777C165.906 257.966 165.834 258.151 165.737 258.326L166.037 258.783L165.409 259.434L164.942 259.151C164.771 259.254 164.589 259.333 164.401 259.386L164.29 259.921L163.386 259.937L163.256 259.406C163.067 259.359 162.882 259.287 162.707 259.19L162.25 259.49L161.599 258.862L161.882 258.395C161.779 258.224 161.7 258.042 161.647 257.854L161.112 257.743L161.096 256.839L161.627 256.709C161.674 256.519 161.746 256.335 161.843 256.16L161.544 255.703L162.172 255.052L162.638 255.335ZM163.12 256.54C162.748 256.926 162.759 257.54 163.144 257.912C163.53 258.284 164.144 258.273 164.516 257.888C164.888 257.503 164.877 256.888 164.492 256.516C164.107 256.143 163.493 256.154 163.12 256.54Z" fill="#8799AC"/>
    <path d="M170.142 280.679H155.982C155.178 280.679 154.527 280.028 154.527 279.224C154.527 278.42 155.179 277.769 155.982 277.769H170.142C170.946 277.769 171.597 278.421 171.597 279.224C171.597 280.027 170.946 280.679 170.142 280.679Z" fill="#8799AC"/>
    <path d="M170.142 273.266H155.982C155.178 273.266 154.527 272.615 154.527 271.811C154.527 271.007 155.179 270.356 155.982 270.356H170.142C170.946 270.356 171.597 271.008 171.597 271.811C171.597 272.614 170.946 273.266 170.142 273.266Z" fill="#8799AC"/>
    <path d="M170.142 266.484H155.982C155.178 266.484 154.527 265.833 154.527 265.029C154.527 264.225 155.179 263.574 155.982 263.574H170.142C170.946 263.574 171.597 264.225 171.597 265.029C171.597 265.833 170.946 266.484 170.142 266.484Z" fill="#8799AC"/>
    <path d="M208.186 259.902H194.774C193.97 259.902 193.319 259.25 193.319 258.447C193.319 257.643 193.971 256.992 194.774 256.992H208.186C208.99 256.992 209.641 257.643 209.641 258.447C209.641 259.251 208.99 259.902 208.186 259.902Z" fill="#263238"/>
    <path d="M208.186 267.519H194.774C193.97 267.519 193.319 266.868 193.319 266.064C193.319 265.26 193.971 264.609 194.774 264.609H208.186C208.99 264.609 209.641 265.26 209.641 266.064C209.641 266.868 208.99 267.519 208.186 267.519Z" fill="#8799AC"/>
    <path d="M208.186 275.391H194.774C193.97 275.391 193.319 274.74 193.319 273.936C193.319 273.132 193.971 272.481 194.774 272.481H208.186C208.99 272.481 209.641 273.132 209.641 273.936C209.641 274.739 208.99 275.391 208.186 275.391Z" fill="#79B5BE"/>
    <path d="M202.465 290.61H194.774C193.97 290.61 193.319 289.959 193.319 289.155C193.319 288.351 193.971 287.7 194.774 287.7H202.465C203.269 287.7 203.92 288.351 203.92 289.155C203.92 289.958 203.269 290.61 202.465 290.61Z" fill="#263238"/>
    <path d="M202.465 298.499H194.774C193.97 298.499 193.319 297.848 193.319 297.044C193.319 296.24 193.971 295.589 194.774 295.589H202.465C203.269 295.589 203.92 296.24 203.92 297.044C203.92 297.847 203.269 298.499 202.465 298.499Z" fill="#263238"/>
    <path d="M225.322 298.499H211.22C210.416 298.499 209.765 297.848 209.765 297.044C209.765 296.24 210.417 295.589 211.22 295.589H225.322C226.126 295.589 226.777 296.24 226.777 297.044C226.777 297.847 226.125 298.499 225.322 298.499Z" fill="#8799AC"/>
    <path d="M217.346 305.514H203.244C202.44 305.514 201.789 304.863 201.789 304.059C201.789 303.255 202.44 302.604 203.244 302.604H217.346C218.15 302.604 218.801 303.255 218.801 304.059C218.801 304.862 218.149 305.514 217.346 305.514Z" fill="#79B5BE"/>
    <path d="M220.47 313.516H210.784C210.235 313.516 209.791 313.071 209.791 312.523V311.6C209.791 311.051 210.236 310.607 210.784 310.607H220.47C221.019 310.607 221.463 311.052 221.463 311.6V312.523C221.463 313.071 221.018 313.516 220.47 313.516Z" fill="#79B5BE"/>
    <path d="M220.008 329.198H211.246C210.442 329.198 209.791 328.546 209.791 327.743C209.791 326.939 210.442 326.288 211.246 326.288H220.008C220.812 326.288 221.463 326.939 221.463 327.743C221.463 328.546 220.812 329.198 220.008 329.198Z" fill="#79B5BE"/>
    <path d="M220.008 345.761H211.246C210.442 345.761 209.791 345.109 209.791 344.306C209.791 343.502 210.442 342.851 211.246 342.851H220.008C220.812 342.851 221.463 343.503 221.463 344.306C221.463 345.11 220.812 345.761 220.008 345.761Z" fill="#79B5BE"/>
    <path d="M241.549 345.761H226.187C225.383 345.761 224.732 345.109 224.732 344.306C224.732 343.502 225.383 342.851 226.187 342.851H241.549C242.353 342.851 243.004 343.503 243.004 344.306C243.004 345.11 242.352 345.761 241.549 345.761Z" fill="#455A64"/>
    <path d="M252.301 345.761H250.088C249.284 345.761 248.633 345.109 248.633 344.306C248.633 343.502 249.285 342.851 250.088 342.851H252.301C253.105 342.851 253.756 343.503 253.756 344.306C253.756 345.11 253.105 345.761 252.301 345.761Z" fill="#8799AC"/>
    <path d="M240.628 329.198H227.646C226.842 329.198 226.191 328.546 226.191 327.743C226.191 326.939 226.843 326.288 227.646 326.288H240.628C241.432 326.288 242.083 326.939 242.083 327.743C242.083 328.546 241.432 329.198 240.628 329.198Z" fill="#8799AC"/>
    <path d="M269.096 336.469H227.646C226.842 336.469 226.191 335.817 226.191 335.014C226.191 334.21 226.843 333.559 227.646 333.559H269.096C269.9 333.559 270.551 334.21 270.551 335.014C270.551 335.817 269.9 336.469 269.096 336.469Z" fill="#8799AC"/>
    <path d="M273.884 329.198H247.42C246.616 329.198 245.965 328.546 245.965 327.743C245.965 326.939 246.616 326.288 247.42 326.288H273.884C274.688 326.288 275.339 326.939 275.339 327.743C275.339 328.546 274.688 329.198 273.884 329.198Z" fill="#455A64"/>
    <path d="M238.156 313.516H226.269C225.72 313.516 225.276 313.071 225.276 312.523V311.6C225.276 311.051 225.721 310.607 226.269 310.607H238.156C238.705 310.607 239.149 311.052 239.149 311.6V312.523C239.149 313.071 238.704 313.516 238.156 313.516Z" fill="#455A64"/>
    <path d="M247.645 313.516H243.997C243.448 313.516 243.004 313.071 243.004 312.523V311.6C243.004 311.051 243.449 310.607 243.997 310.607H247.645C248.194 310.607 248.638 311.052 248.638 311.6V312.523C248.639 313.071 248.194 313.516 247.645 313.516Z" fill="#8799AC"/>
    <path d="M268.549 313.516H253.917C253.368 313.516 252.924 313.071 252.924 312.523V311.6C252.924 311.051 253.369 310.607 253.917 310.607H268.549C269.098 310.607 269.542 311.052 269.542 311.6V312.523C269.543 313.071 269.098 313.516 268.549 313.516Z" fill="#8799AC"/>
    <path d="M226.898 305.514H223.756C222.952 305.514 222.301 304.863 222.301 304.059C222.301 303.255 222.953 302.604 223.756 302.604H226.898C227.702 302.604 228.353 303.255 228.353 304.059C228.353 304.862 227.701 305.514 226.898 305.514Z" fill="#263238"/>
    <path d="M253.52 305.514H233.512C232.708 305.514 232.057 304.863 232.057 304.059C232.057 303.255 232.709 302.604 233.512 302.604H253.52C254.324 302.604 254.975 303.255 254.975 304.059C254.975 304.862 254.324 305.514 253.52 305.514Z" fill="#8799AC"/>
    <path d="M229.673 259.902H216.261C215.457 259.902 214.806 259.25 214.806 258.447C214.806 257.643 215.458 256.992 216.261 256.992H229.673C230.477 256.992 231.128 257.643 231.128 258.447C231.128 259.251 230.477 259.902 229.673 259.902Z" fill="#455A64"/>
    <path d="M246.954 267.519H216.261C215.457 267.519 214.806 266.868 214.806 266.064C214.806 265.26 215.458 264.609 216.261 264.609H246.954C247.758 264.609 248.409 265.26 248.409 266.064C248.409 266.868 247.758 267.519 246.954 267.519Z" fill="#263238"/>
    <path d="M279.999 275.391H216.261C215.457 275.391 214.806 274.74 214.806 273.936C214.806 273.132 215.458 272.481 216.261 272.481H279.999C280.803 272.481 281.454 273.132 281.454 273.936C281.454 274.739 280.803 275.391 279.999 275.391Z" fill="#8799AC"/>
    <path d="M246.315 280.935H216.262C215.458 280.935 214.807 280.284 214.807 279.48C214.807 278.676 215.459 278.025 216.262 278.025H246.315C247.119 278.025 247.77 278.676 247.77 279.48C247.77 280.284 247.118 280.935 246.315 280.935Z" fill="#8799AC"/>
    <path d="M240.167 290.61H210.114C209.31 290.61 208.659 289.959 208.659 289.155C208.659 288.351 209.311 287.7 210.114 287.7H240.167C240.971 287.7 241.622 288.351 241.622 289.155C241.622 289.958 240.97 290.61 240.167 290.61Z" fill="#455A64"/>
    <path d="M256.991 290.61H246.917C246.113 290.61 245.462 289.959 245.462 289.155C245.462 288.351 246.113 287.7 246.917 287.7H256.991C257.795 287.7 258.446 288.351 258.446 289.155C258.446 289.958 257.795 290.61 256.991 290.61Z" fill="#79B5BE"/>
    <path d="M282.746 290.563H263.717C262.913 290.563 262.262 289.912 262.262 289.108C262.262 288.304 262.914 287.653 263.717 287.653H282.746C283.55 287.653 284.201 288.304 284.201 289.108C284.201 289.911 283.55 290.563 282.746 290.563Z" fill="#263238"/>
    <path d="M308.642 290.563H289.613C288.809 290.563 288.158 289.912 288.158 289.108C288.158 288.304 288.809 287.653 289.613 287.653H308.642C309.446 287.653 310.097 288.304 310.097 289.108C310.097 289.911 309.446 290.563 308.642 290.563Z" fill="#8799AC"/>
    <path d="M164.01 288.526H155.983C155.179 288.526 154.528 287.874 154.528 287.071C154.528 286.267 155.18 285.616 155.983 285.616H164.01C164.814 285.616 165.465 286.267 165.465 287.071C165.465 287.875 164.814 288.526 164.01 288.526Z" fill="#8799AC"/>
    <path d="M161.607 312.068H155.982C155.178 312.068 154.527 311.416 154.527 310.613C154.527 309.809 155.179 309.158 155.982 309.158H161.607C162.411 309.158 163.062 309.809 163.062 310.613C163.063 311.417 162.411 312.068 161.607 312.068Z" fill="#8799AC"/>
    <path d="M171.597 296.374H155.982C155.178 296.374 154.527 295.722 154.527 294.919C154.527 294.115 155.179 293.464 155.982 293.464H171.597C172.401 293.464 173.052 294.116 173.052 294.919C173.052 295.722 172.401 296.374 171.597 296.374Z" fill="#8799AC"/>
    <path d="M168.858 304.221H155.983C155.179 304.221 154.528 303.57 154.528 302.766C154.528 301.962 155.18 301.311 155.983 301.311H168.858C169.662 301.311 170.313 301.962 170.313 302.766C170.313 303.569 169.661 304.221 168.858 304.221Z" fill="#8799AC"/>
    <path d="M188.2 258.447C188.2 259.263 187.538 259.925 186.722 259.925C185.906 259.925 185.244 259.263 185.244 258.447C185.244 257.631 185.906 256.969 186.722 256.969C187.538 256.969 188.2 257.631 188.2 258.447Z" fill="#455A64"/>
    <path d="M186.722 252.162C187.538 252.162 188.2 251.5 188.2 250.684C188.2 249.868 187.538 249.206 186.722 249.206C185.905 249.206 185.244 249.868 185.244 250.684C185.244 251.5 185.905 252.162 186.722 252.162Z" fill="#455A64"/>
    <path d="M186.722 267.519C187.538 267.519 188.2 266.857 188.2 266.041C188.2 265.225 187.538 264.563 186.722 264.563C185.905 264.563 185.244 265.225 185.244 266.041C185.244 266.857 185.905 267.519 186.722 267.519Z" fill="#455A64"/>
    <path d="M186.722 275.414C187.538 275.414 188.2 274.752 188.2 273.936C188.2 273.12 187.538 272.458 186.722 272.458C185.905 272.458 185.244 273.12 185.244 273.936C185.244 274.752 185.905 275.414 186.722 275.414Z" fill="#455A64"/>
    <path d="M186.722 283.308C187.538 283.308 188.2 282.646 188.2 281.83C188.2 281.014 187.538 280.352 186.722 280.352C185.905 280.352 185.244 281.014 185.244 281.83C185.244 282.646 185.905 283.308 186.722 283.308Z" fill="#455A64"/>
    <path d="M188.2 289.725C188.2 290.541 187.538 291.203 186.722 291.203C185.906 291.203 185.244 290.541 185.244 289.725C185.244 288.909 185.906 288.247 186.722 288.247C187.538 288.247 188.2 288.909 188.2 289.725Z" fill="#455A64"/>
    <path d="M186.722 299.097C187.538 299.097 188.2 298.435 188.2 297.619C188.2 296.803 187.538 296.141 186.722 296.141C185.905 296.141 185.244 296.803 185.244 297.619C185.244 298.435 185.905 299.097 186.722 299.097Z" fill="#455A64"/>
    <path d="M186.722 306.992C187.538 306.992 188.2 306.33 188.2 305.514C188.2 304.698 187.538 304.036 186.722 304.036C185.905 304.036 185.244 304.698 185.244 305.514C185.244 306.33 185.905 306.992 186.722 306.992Z" fill="#455A64"/>
    <path d="M188.2 313.408C188.2 314.224 187.538 314.886 186.722 314.886C185.906 314.886 185.244 314.224 185.244 313.408C185.244 312.592 185.906 311.93 186.722 311.93C187.538 311.93 188.2 312.592 188.2 313.408Z" fill="#455A64"/>
    <path d="M188.2 321.303C188.2 322.119 187.538 322.781 186.722 322.781C185.906 322.781 185.244 322.119 185.244 321.303C185.244 320.487 185.906 319.825 186.722 319.825C187.538 319.825 188.2 320.487 188.2 321.303Z" fill="#455A64"/>
    <path d="M186.722 330.676C187.538 330.676 188.2 330.014 188.2 329.198C188.2 328.382 187.538 327.72 186.722 327.72C185.905 327.72 185.244 328.382 185.244 329.198C185.244 330.014 185.905 330.676 186.722 330.676Z" fill="#455A64"/>
    <path d="M188.2 337.092C188.2 337.908 187.538 338.57 186.722 338.57C185.906 338.57 185.244 337.908 185.244 337.092C185.244 336.276 185.906 335.614 186.722 335.614C187.538 335.614 188.2 336.276 188.2 337.092Z" fill="#455A64"/>
    <path d="M186.722 346.465C187.538 346.465 188.2 345.803 188.2 344.987C188.2 344.171 187.538 343.509 186.722 343.509C185.905 343.509 185.244 344.171 185.244 344.987C185.244 345.803 185.905 346.465 186.722 346.465Z" fill="#455A64"/>
    <path d="M324.878 227.312H153.766C150.782 227.312 148.363 229.731 148.363 232.715V242.954H328.713V231.147C328.713 229.029 326.996 227.312 324.878 227.312Z" fill="#8799AC"/>
    <path d="M157.683 237.754C158.869 237.754 159.831 236.792 159.831 235.606C159.831 234.42 158.869 233.458 157.683 233.458C156.496 233.458 155.535 234.42 155.535 235.606C155.535 236.792 156.496 237.754 157.683 237.754Z" fill="white"/>
    <path d="M166.442 235.606C166.442 236.793 165.48 237.754 164.294 237.754C163.107 237.754 162.146 236.792 162.146 235.606C162.146 234.42 163.108 233.458 164.294 233.458C165.48 233.457 166.442 234.419 166.442 235.606Z" fill="white"/>
    <path d="M173.052 235.606C173.052 236.793 172.09 237.754 170.904 237.754C169.717 237.754 168.756 236.792 168.756 235.606C168.756 234.42 169.718 233.458 170.904 233.458C172.091 233.457 173.052 234.419 173.052 235.606Z" fill="white"/>
    <path d="M186.722 355.885L201.966 372.365L215.804 355.885H186.722Z" fill="white"/>
    <path d="M323.822 357.675C323.815 357.638 324.388 357.723 325.4 357.382C325.9 357.209 326.503 356.903 327.082 356.37C327.661 355.846 328.21 355.072 328.482 354.073C328.631 353.575 328.666 353.03 328.655 352.447C328.653 351.864 328.651 351.251 328.649 350.607C328.645 349.319 328.641 347.912 328.637 346.388C328.63 343.337 328.622 339.819 328.613 335.859C328.593 320.008 328.565 297.085 328.53 268.761C328.525 261.679 328.519 254.259 328.513 246.528C328.51 242.662 328.508 238.719 328.505 234.701C328.492 233.707 328.532 232.664 328.475 231.697C328.364 230.734 327.961 229.798 327.296 229.076C326.648 228.339 325.748 227.837 324.787 227.626C323.833 227.452 322.761 227.556 321.728 227.527C305.072 227.535 287.276 227.543 268.549 227.551C249.822 227.556 230.164 227.561 209.785 227.566C199.596 227.567 189.226 227.569 178.702 227.57C173.44 227.57 168.14 227.571 162.804 227.571C160.136 227.571 157.46 227.571 154.775 227.571C154.116 227.581 153.405 227.547 152.786 227.595C152.152 227.658 151.533 227.857 150.979 228.172C149.867 228.798 149.034 229.903 148.748 231.15C148.543 232.003 148.652 232.965 148.623 233.905V236.723C148.623 238.6 148.623 240.472 148.623 242.341C148.623 246.078 148.623 249.798 148.622 253.501C148.621 260.905 148.621 268.238 148.62 275.488C148.617 289.989 148.615 304.162 148.612 317.929C148.61 324.812 148.608 331.594 148.607 338.265C148.606 341.6 148.605 344.908 148.604 348.186C148.61 349.819 148.588 351.472 148.617 353.067C148.687 354.617 149.618 356.072 150.952 356.825C151.613 357.213 152.376 357.407 153.136 357.432C153.935 357.434 154.732 357.437 155.527 357.439C157.121 357.44 158.708 357.44 160.286 357.441C163.443 357.442 166.569 357.444 169.662 357.445C175.848 357.448 181.903 357.451 187.818 357.454H187.913L187.978 357.523C192.775 362.573 197.429 367.473 201.939 372.22L201.626 372.23C205.907 367.139 210.012 362.257 213.971 357.549L214.03 357.478H214.122C247.879 357.515 275.3 357.544 294.292 357.565C303.779 357.588 311.158 357.606 316.175 357.618C318.674 357.63 320.583 357.64 321.876 357.646C323.163 357.656 323.822 357.675 323.822 357.675C323.822 357.675 323.163 357.695 321.878 357.704C320.585 357.71 318.676 357.72 316.177 357.732C311.16 357.744 303.781 357.762 294.294 357.785C275.302 357.806 247.881 357.835 214.124 357.872L214.275 357.802C210.322 362.516 206.224 367.403 201.95 372.5L201.799 372.68L201.637 372.51C197.122 367.767 192.462 362.873 187.659 357.828L187.819 357.897C181.904 357.9 175.849 357.903 169.663 357.906C166.57 357.907 163.444 357.909 160.287 357.91C158.708 357.911 157.122 357.911 155.528 357.912C154.729 357.91 153.928 357.908 153.125 357.907C152.288 357.881 151.446 357.666 150.717 357.239C149.246 356.411 148.219 354.807 148.139 353.097C148.108 351.444 148.129 349.833 148.122 348.187C148.121 344.909 148.12 341.601 148.119 338.266C148.117 331.595 148.115 324.813 148.113 317.93C148.111 304.163 148.108 289.99 148.105 275.489C148.104 268.239 148.104 260.906 148.103 253.502C148.103 249.8 148.103 246.079 148.102 242.342C148.102 240.474 148.102 238.601 148.102 236.724V233.906V232.495C148.093 232.03 148.127 231.51 148.24 231.033C148.558 229.643 149.485 228.416 150.721 227.72C151.337 227.369 152.027 227.148 152.732 227.078C153.455 227.025 154.09 227.064 154.773 227.052C157.458 227.052 160.135 227.052 162.802 227.052C168.138 227.052 173.438 227.053 178.7 227.053C189.224 227.054 199.593 227.056 209.783 227.057C230.162 227.062 249.82 227.067 268.547 227.072C287.274 227.08 305.07 227.088 321.726 227.096C322.77 227.129 323.789 227.015 324.873 227.208C325.924 227.439 326.904 227.99 327.61 228.793C328.333 229.581 328.773 230.604 328.892 231.654C328.952 232.711 328.908 233.689 328.921 234.703C328.918 238.721 328.916 242.665 328.913 246.53C328.907 254.261 328.902 261.681 328.896 268.763C328.861 297.087 328.833 320.01 328.813 335.861C328.804 339.821 328.796 343.339 328.789 346.39C328.785 347.914 328.781 349.322 328.777 350.609C328.775 351.252 328.773 351.866 328.771 352.449C328.779 353.03 328.738 353.599 328.582 354.103C328.296 355.121 327.728 355.904 327.134 356.43C326.539 356.965 325.925 357.267 325.416 357.434C324.905 357.602 324.499 357.651 324.229 357.67C323.958 357.677 323.822 357.675 323.822 357.675Z" fill="#263238"/>
    <path d="M298.15 203.975H162.525C160.775 203.975 159.356 202.556 159.356 200.806V131.66C159.356 129.91 160.775 128.491 162.525 128.491H298.77C300.52 128.491 301.939 129.91 301.939 131.66V200.186C301.94 202.279 300.243 203.975 298.15 203.975Z" fill="white"/>
    <path d="M301.94 144.701H159.356V131.964C159.356 130.046 160.911 128.491 162.829 128.491H298.466C300.384 128.491 301.939 130.046 301.939 131.964V144.701H301.94Z" fill="#8799AC"/>
    <path d="M297.928 203.975C297.925 203.951 298.311 203.989 299.016 203.794C299.695 203.596 300.762 203.066 301.435 201.798C301.773 201.169 301.92 200.381 301.875 199.497C301.871 198.613 301.867 197.647 301.863 196.601C301.856 194.506 301.848 192.091 301.839 189.374C301.819 178.488 301.791 162.756 301.756 143.318C301.753 140.887 301.75 138.399 301.747 135.855C301.746 134.583 301.744 133.297 301.743 131.997C301.856 130.734 301.16 129.494 300.01 128.971C299.439 128.688 298.824 128.678 298.139 128.694C297.469 128.695 296.796 128.695 296.119 128.696C294.766 128.697 293.4 128.699 292.021 128.7C289.263 128.702 286.454 128.705 283.596 128.707C272.163 128.715 259.948 128.723 247.094 128.731C221.384 128.737 193.121 128.744 163.453 128.752C162.977 128.753 162.545 128.738 162.131 128.843C161.714 128.941 161.318 129.124 160.971 129.375C160.275 129.876 159.792 130.659 159.662 131.502C159.595 131.911 159.623 132.378 159.617 132.84V134.219V136.971C159.617 140.634 159.616 144.274 159.616 147.887C159.615 155.112 159.613 162.232 159.612 169.228C159.61 176.224 159.608 183.096 159.606 189.826C159.605 193.191 159.603 196.521 159.602 199.812C159.535 201.385 160.514 202.898 161.956 203.456C162.668 203.767 163.436 203.74 164.26 203.734C165.069 203.734 165.875 203.735 166.678 203.735C192.388 203.756 215.542 203.775 234.99 203.791C254.428 203.826 270.159 203.854 281.043 203.874C286.472 203.895 290.69 203.912 293.564 203.923C294.987 203.934 296.075 203.943 296.82 203.949C297.552 203.957 297.928 203.975 297.928 203.975C297.928 203.975 297.552 203.993 296.819 204.002C296.074 204.008 294.986 204.016 293.563 204.028C290.689 204.039 286.471 204.056 281.042 204.077C270.157 204.097 254.426 204.125 234.989 204.16C215.541 204.176 192.388 204.195 166.677 204.216C165.873 204.217 165.067 204.217 164.259 204.217C163.477 204.224 162.576 204.257 161.773 203.906C160.147 203.286 159.037 201.551 159.112 199.813C159.111 196.521 159.109 193.192 159.108 189.827C159.106 183.097 159.104 176.225 159.102 169.229C159.101 162.233 159.099 155.114 159.098 147.888C159.098 144.275 159.097 140.636 159.097 136.972V134.22V132.841C159.105 132.384 159.071 131.924 159.148 131.421C159.299 130.441 159.859 129.534 160.665 128.954C161.066 128.663 161.526 128.451 162.01 128.337C162.498 128.215 163.003 128.233 163.452 128.232C193.119 128.239 221.383 128.246 247.093 128.253C259.947 128.261 272.162 128.269 283.595 128.277C286.453 128.28 289.262 128.282 292.02 128.284C293.399 128.285 294.765 128.287 296.118 128.288C296.795 128.289 297.468 128.289 298.138 128.29C298.783 128.273 299.546 128.285 300.179 128.609C301.482 129.185 302.267 130.656 302.137 131.999C302.136 133.299 302.134 134.585 302.133 135.857C302.13 138.401 302.127 140.89 302.124 143.32C302.089 162.758 302.061 178.49 302.041 189.376C302.032 192.093 302.024 194.508 302.017 196.603C302.013 197.649 302.008 198.615 302.005 199.499C302.006 199.938 302 200.37 301.919 200.768C301.829 201.164 301.7 201.529 301.528 201.849C300.821 203.143 299.723 203.664 299.031 203.847C298.312 204.026 297.928 203.975 297.928 203.975Z" fill="#263238"/>
    <path d="M169.967 140.514C171.433 140.514 172.622 139.325 172.622 137.859C172.622 136.393 171.433 135.204 169.967 135.204C168.501 135.204 167.312 136.393 167.312 137.859C167.312 139.325 168.501 140.514 169.967 140.514Z" fill="white"/>
    <path d="M180.792 137.859C180.792 139.325 179.603 140.514 178.137 140.514C176.671 140.514 175.482 139.325 175.482 137.859C175.482 136.393 176.671 135.204 178.137 135.204C179.603 135.204 180.792 136.393 180.792 137.859Z" fill="white"/>
    <path d="M186.307 140.514C187.773 140.514 188.962 139.325 188.962 137.859C188.962 136.393 187.773 135.204 186.307 135.204C184.841 135.204 183.652 136.393 183.652 137.859C183.652 139.325 184.841 140.514 186.307 140.514Z" fill="white"/>
    <path d="M200.441 167.544H183.866C182.873 167.544 182.068 166.739 182.068 165.746C182.068 164.753 182.873 163.948 183.866 163.948H200.441C201.434 163.948 202.239 164.753 202.239 165.746C202.239 166.739 201.434 167.544 200.441 167.544Z" fill="#263238"/>
    <path d="M200.441 176.957H183.866C182.873 176.957 182.068 176.152 182.068 175.159C182.068 174.166 182.873 173.361 183.866 173.361H200.441C201.434 173.361 202.239 174.166 202.239 175.159C202.239 176.152 201.434 176.957 200.441 176.957Z" fill="#8799AC"/>
    <path d="M287.938 167.544H239.862C238.869 167.544 238.064 166.739 238.064 165.746C238.064 164.753 238.869 163.948 239.862 163.948H287.938C288.931 163.948 289.736 164.753 289.736 165.746C289.736 166.739 288.931 167.544 287.938 167.544Z" fill="#8799AC"/>
    <path d="M200.441 186.685H183.866C182.873 186.685 182.068 185.88 182.068 184.887C182.068 183.894 182.873 183.089 183.866 183.089H200.441C201.434 183.089 202.239 183.894 202.239 184.887C202.239 185.88 201.434 186.685 200.441 186.685Z" fill="#79B5BE"/>
    <path d="M276.469 176.957H259.894C258.901 176.957 258.096 176.152 258.096 175.159C258.096 174.166 258.901 173.361 259.894 173.361H276.469C277.462 173.361 278.267 174.166 278.267 175.159C278.268 176.152 277.462 176.957 276.469 176.957Z" fill="#79B5BE"/>
    <path d="M226.996 167.544H210.42C209.427 167.544 208.622 166.739 208.622 165.746C208.622 164.753 209.427 163.948 210.42 163.948H226.995C227.988 163.948 228.793 164.753 228.793 165.746C228.794 166.739 227.989 167.544 226.996 167.544Z" fill="#455A64"/>
    <path d="M248.352 176.957H210.42C209.427 176.957 208.622 176.152 208.622 175.159C208.622 174.166 209.427 173.361 210.42 173.361H248.352C249.345 173.361 250.15 174.166 250.15 175.159C250.15 176.152 249.345 176.957 248.352 176.957Z" fill="#263238"/>
    <path d="M285.558 186.685H210.34C209.392 186.685 208.623 185.88 208.623 184.887C208.623 183.894 209.392 183.089 210.34 183.089H285.558C286.506 183.089 287.275 183.894 287.275 184.887C287.275 185.88 286.506 186.685 285.558 186.685Z" fill="#8799AC"/>
    <path d="M247.562 193.538H210.42C209.427 193.538 208.622 192.733 208.622 191.74C208.622 190.747 209.427 189.942 210.42 189.942H247.561C248.554 189.942 249.359 190.747 249.359 191.74C249.36 192.732 248.555 193.538 247.562 193.538Z" fill="#8799AC"/>
    <path d="M175.741 165.744C175.741 166.753 174.923 167.571 173.914 167.571C172.905 167.571 172.087 166.753 172.087 165.744C172.087 164.735 172.905 163.917 173.914 163.917C174.923 163.918 175.741 164.735 175.741 165.744Z" fill="#455A64"/>
    <path d="M175.741 156.737C175.741 157.746 174.923 158.564 173.914 158.564C172.905 158.564 172.087 157.746 172.087 156.737C172.087 155.728 172.905 154.91 173.914 154.91C174.923 154.91 175.741 155.728 175.741 156.737Z" fill="#455A64"/>
    <path d="M173.914 176.958C174.923 176.958 175.741 176.14 175.741 175.131C175.741 174.122 174.923 173.304 173.914 173.304C172.905 173.304 172.087 174.122 172.087 175.131C172.087 176.14 172.905 176.958 173.914 176.958Z" fill="#455A64"/>
    <path d="M173.914 186.714C174.923 186.714 175.741 185.896 175.741 184.887C175.741 183.878 174.923 183.06 173.914 183.06C172.905 183.06 172.087 183.878 172.087 184.887C172.087 185.896 172.905 186.714 173.914 186.714Z" fill="#455A64"/>
    <path d="M193.61 158.046H183.403C182.874 158.046 182.445 157.617 182.445 157.088V155.535C182.445 155.006 182.874 154.577 183.403 154.577H193.61C194.139 154.577 194.568 155.006 194.568 155.535V157.088C194.568 157.617 194.139 158.046 193.61 158.046Z" fill="#455A64"/>
    <path d="M89.532 439.012C81.191 442.644 73.154 442.978 65.514 439.012L59.938 392.279H94.593L89.532 439.012Z" fill="#6F4439"/>
    <path d="M92.2988 389.568L91.2558 386.231L65.1508 383.043C64.4398 382.956 63.7648 383.378 63.5318 384.056L61.6368 389.569H58.2998V395.618C71.4098 397.928 83.9588 398.065 95.8438 395.618V389.569H92.2988V389.568Z" fill="#E0E0E0"/>
    <path d="M92.299 389.568C92.304 389.561 92.387 389.554 92.543 389.547C92.728 389.54 92.954 389.533 93.231 389.523C93.866 389.51 94.736 389.492 95.845 389.47L95.943 389.468L95.944 389.568C95.959 391.128 95.979 393.17 96.002 395.617L96.003 395.744L95.877 395.771C91.721 396.645 86.197 397.479 79.762 397.613C73.332 397.767 66.017 397.231 58.401 395.898L58.256 395.874L58.041 395.838V395.617C58.042 393.563 58.042 391.541 58.043 389.568V389.31H58.301C59.431 389.311 60.544 389.312 61.638 389.313L61.397 389.485C62.035 387.639 62.658 385.835 63.264 384.081C63.398 383.595 63.789 383.125 64.279 382.929C64.523 382.827 64.791 382.778 65.053 382.792C65.314 382.813 65.512 382.846 65.744 382.872C66.638 382.983 67.517 383.093 68.382 383.201C71.836 383.636 75.052 384.04 77.969 384.407C83.743 385.157 88.324 385.752 91.268 386.134L91.332 386.142L91.349 386.202C91.654 387.253 91.893 388.077 92.067 388.679C92.139 388.942 92.198 389.156 92.246 389.332C92.287 389.481 92.304 389.561 92.299 389.568C92.294 389.575 92.266 389.509 92.216 389.372C92.157 389.204 92.085 389 91.997 388.749C91.795 388.144 91.518 387.316 91.164 386.259L91.245 386.327C88.296 385.99 83.706 385.464 77.921 384.802C75.001 384.456 71.782 384.075 68.325 383.665C67.46 383.561 66.58 383.456 65.686 383.349C65.216 383.295 64.821 383.204 64.47 383.376C64.111 383.533 63.847 383.83 63.73 384.24C63.129 385.996 62.511 387.802 61.879 389.65L61.82 389.822H61.638C60.544 389.823 59.431 389.824 58.301 389.825L58.559 389.567C58.56 391.539 58.56 393.562 58.561 395.616L58.346 395.36L58.49 395.384C66.076 396.711 73.352 397.265 79.752 397.148C86.156 397.05 91.659 396.272 95.813 395.464L95.688 395.617C95.711 393.17 95.731 391.129 95.746 389.568L95.844 389.666C94.716 389.643 93.83 389.626 93.184 389.613C92.914 389.603 92.694 389.596 92.514 389.589C92.367 389.582 92.294 389.575 92.299 389.568Z" fill="#263238"/>
    <path d="M91.9762 423.52C82.9212 424.983 72.9272 424.771 62.3502 423.52L60.9092 409.353C72.0692 410.553 83.0162 410.604 93.7242 409.353L91.9762 423.52Z" fill="#AE7461"/>
    <path d="M75.309 413.902C73.954 414.723 73.404 416.448 74.087 417.918L75.029 419.947C75.712 421.417 77.384 422.11 78.885 421.605L75.309 413.902Z" fill="#6F4439"/>
    <path d="M75.9409 413.609L79.5179 421.311C80.8729 420.491 81.4229 418.765 80.7399 417.295L79.7979 415.266C79.1149 413.796 77.4419 413.103 75.9409 413.609Z" fill="#6F4439"/>
    <path d="M92.5951 389.656C92.6031 389.691 92.1831 389.816 91.4151 390.012C90.6481 390.214 89.5261 390.454 88.1301 390.703C85.3401 391.204 81.4301 391.65 77.0961 391.645C72.7611 391.632 68.8521 391.169 66.0641 390.656C64.6691 390.401 63.5481 390.157 62.7821 389.951C62.0151 389.752 61.5951 389.625 61.6041 389.59C61.6121 389.555 62.0471 389.615 62.8251 389.753C63.6021 389.897 64.7291 390.086 66.1241 390.293C68.9131 390.711 72.7951 391.112 77.0971 391.125C81.3981 391.13 85.2811 390.746 88.0721 390.34C89.4681 390.139 90.5961 389.955 91.3731 389.815C92.1511 389.68 92.5871 389.621 92.5951 389.656Z" fill="#263238"/>
    <path d="M110.404 320.164C110.404 320.164 104.695 321.394 103.703 325.447C102.711 329.5 111.655 426.442 112.014 428.804C112.578 432.513 115.707 437.226 122.755 436.972C128.897 436.751 212.607 436.946 233.685 436.995C236.486 437.002 238.169 434.616 238.538 431.779L134.894 425.661L110.404 320.164Z" fill="#E0E0E0"/>
    <path d="M107.804 323.397L116.782 427.943C116.954 429.651 118.377 430.959 120.093 430.987L238.537 431.519L215.784 408.94L138.839 408.398L130.61 326.492C130.495 325.404 129.704 324.508 128.638 324.259L111.402 320.242C109.44 319.786 107.609 321.392 107.804 323.397Z" fill="#E0E0E0"/>
    <path d="M107.805 323.397C107.805 323.397 107.771 323.228 107.786 322.892C107.799 322.56 107.886 322.042 108.247 321.478C108.597 320.923 109.274 320.319 110.261 320.151C110.748 320.054 111.299 320.137 111.836 320.28C112.384 320.405 112.969 320.539 113.59 320.68C116.077 321.251 119.14 321.954 122.739 322.78C124.54 323.195 126.475 323.641 128.539 324.116C129.624 324.297 130.605 325.257 130.729 326.447C130.844 327.567 130.963 328.719 131.085 329.903C133.011 348.848 135.761 375.899 139.062 408.374L138.841 408.173C161.934 408.326 187.977 408.498 215.786 408.682L215.891 408.683L215.965 408.757C223.256 415.991 230.919 423.593 238.721 431.333L239.173 431.781L238.537 431.778C236.88 431.771 235.088 431.762 233.29 431.755C202.489 431.609 173.149 431.471 146.462 431.345C139.791 431.311 133.285 431.278 126.964 431.246C125.384 431.238 123.815 431.23 122.258 431.222C121.475 431.214 120.715 431.224 119.921 431.2C119.097 431.151 118.301 430.807 117.702 430.251C117.1 429.697 116.702 428.935 116.587 428.132C116.5 427.354 116.452 426.614 116.383 425.858C116.255 424.355 116.128 422.864 116.002 421.387C114.998 409.564 114.063 398.551 113.209 388.496C111.518 368.393 110.149 352.123 109.202 340.867C108.741 335.25 108.383 330.887 108.139 327.915C108.024 326.442 107.936 325.316 107.876 324.546C107.82 323.788 107.805 323.397 107.805 323.397C107.805 323.397 107.856 323.784 107.93 324.542C108.002 325.311 108.107 326.435 108.245 327.907C108.511 330.877 108.902 335.237 109.405 340.85C110.391 352.103 111.816 368.367 113.577 388.464C114.45 398.517 115.406 409.529 116.433 421.349C116.561 422.827 116.69 424.317 116.82 425.82C116.889 426.566 116.942 427.338 117.025 428.071C117.127 428.773 117.476 429.441 118.004 429.926C118.53 430.413 119.229 430.712 119.948 430.754C120.698 430.775 121.49 430.765 122.263 430.772C123.82 430.778 125.388 430.784 126.969 430.79C133.29 430.815 139.795 430.84 146.467 430.867C173.153 430.981 202.493 431.105 233.293 431.237C235.09 431.245 236.882 431.253 238.539 431.261L238.354 431.706C230.553 423.964 222.893 416.36 215.603 409.125L215.782 409.199C187.973 408.991 161.931 408.796 138.838 408.623L138.637 408.621L138.617 408.421C135.392 375.938 132.706 348.881 130.825 329.931C130.708 328.748 130.595 327.596 130.484 326.477C130.371 325.395 129.498 324.519 128.486 324.343C126.424 323.857 124.491 323.401 122.693 322.977C119.1 322.127 116.042 321.403 113.558 320.815C112.939 320.668 112.355 320.529 111.808 320.399C111.262 320.249 110.754 320.169 110.277 320.255C109.323 320.406 108.656 320.982 108.305 321.518C107.943 322.062 107.844 322.568 107.82 322.896C107.794 323.226 107.818 323.397 107.805 323.397Z" fill="#101828"/>
    <path d="M194.502 428.803H205.512L191.593 410.748H185.059L194.502 428.803Z" fill="#101828"/>
    <path d="M111.874 328.123L120.282 418.959L135.947 406.5L129.203 329.969C129.148 329.355 128.678 328.86 128.068 328.772L113.383 326.672C112.528 326.549 111.785 327.263 111.874 328.123Z" fill="#101828"/>
    <path d="M128.698 428.803H140.062L151.609 410.748H145.074L128.698 428.803Z" fill="#101828"/>
    <path d="M142.645 428.803H153.655L159.689 410.748H153.154L142.645 428.803Z" fill="#101828"/>
    <path d="M156.121 428.803H167.131L167.724 410.748H161.189L156.121 428.803Z" fill="#101828"/>
    <path d="M168.617 428.803H179.626L175.562 410.748H169.027L168.617 428.803Z" fill="#101828"/>
    <path d="M181.641 428.803H192.651L183.681 410.748H177.147L181.641 428.803Z" fill="#101828"/>
    <path d="M204.957 425.284C204.957 425.37 188.168 425.44 167.463 425.44C146.751 425.44 129.966 425.37 129.966 425.284C129.966 425.198 146.751 425.128 167.463 425.128C188.168 425.128 204.957 425.198 204.957 425.284Z" fill="#E0E0E0"/>
    <path d="M202.962 421.973C202.962 422.059 187.018 422.129 167.354 422.129C147.684 422.129 131.743 422.059 131.743 421.973C131.743 421.887 147.684 421.817 167.354 421.817C187.018 421.817 202.962 421.887 202.962 421.973Z" fill="#E0E0E0"/>
    <path d="M202.962 418.969C202.962 419.142 187.959 419.282 169.456 419.282C150.947 419.282 135.947 419.142 135.947 418.969C135.947 418.796 150.947 418.657 169.456 418.657C187.959 418.657 202.962 418.797 202.962 418.969Z" fill="#E0E0E0"/>
    <path d="M203.423 416.227C203.423 416.4 188.743 416.54 170.638 416.54C152.527 416.54 137.85 416.4 137.85 416.227C137.85 416.054 152.527 415.914 170.638 415.914C188.743 415.915 203.423 416.055 203.423 416.227Z" fill="#E0E0E0"/>
    <path d="M204.957 414.225C204.957 414.398 190.181 414.538 171.959 414.538C153.73 414.538 138.958 414.398 138.958 414.225C138.958 414.053 153.731 413.912 171.959 413.912C190.182 413.913 204.957 414.053 204.957 414.225Z" fill="#E0E0E0"/>
    <path d="M206.583 412.134C206.583 412.307 191.53 412.447 172.966 412.447C154.395 412.447 139.345 412.307 139.345 412.134C139.345 411.962 154.395 411.821 172.966 411.821C191.53 411.822 206.583 411.962 206.583 412.134Z" fill="#E0E0E0"/>
    <path d="M118.438 427.943C125.278 421.544 132.118 415.144 138.958 408.745L118.438 427.943Z" fill="#E0E0E0"/>
    <path d="M138.958 408.745C139.056 408.85 134.542 413.233 128.877 418.534C123.21 423.836 118.537 428.048 118.439 427.943C118.341 427.838 122.854 423.456 128.521 418.153C134.186 412.853 138.859 408.64 138.958 408.745Z" fill="#101828"/>
    <path d="M478.509 337.237C478.509 337.237 477.503 326.624 451.051 319.831C438.279 316.551 407.792 314.976 404.337 334.792C404.225 335.434 389.163 460.064 389.163 460.064H445.528L478.509 337.237Z" fill="#144B78"/>
    <path d="M469.581 460.064H443.577L452.261 337.959C452.897 332.017 459.047 327.734 465.996 328.391L468.324 328.611C475.274 329.268 479.675 335.963 479.476 343.59L469.581 460.064Z" fill="#144B78"/>
    <path d="M445.528 455.668C445.385 455.656 447.221 431.604 449.63 401.952C452.039 372.29 454.108 348.261 454.251 348.273C454.394 348.285 452.558 372.332 450.149 401.994C447.74 431.646 445.671 455.68 445.528 455.668Z" fill="#101828"/>
    <path d="M473.517 331.47C473.48 331.57 472.163 330.901 469.862 330.61C467.596 330.305 464.255 330.546 461.189 332.297C458.129 334.06 456.234 336.823 455.353 338.933C454.443 341.066 454.355 342.541 454.25 342.522C454.22 342.519 454.217 342.154 454.301 341.499C454.383 340.844 454.59 339.903 455.012 338.794C455.827 336.593 457.74 333.683 460.929 331.845C464.124 330.02 467.602 329.837 469.913 330.245C471.083 330.441 472 330.737 472.607 330.997C473.216 331.255 473.53 331.443 473.517 331.47Z" fill="#101828"/>
    <path d="M391.414 178.81C391.675 171.662 386.83 170.696 383.1 171.519C378.568 168.185 371.69 168.56 367.547 172.368C364.152 170.516 359.786 170.588 356.454 172.55C353.121 174.512 350.941 178.295 350.913 182.163C347.025 181.686 342.952 183.926 341.274 187.465C339.596 191.005 340.439 195.576 343.27 198.284C339.11 199.8 336.517 204.706 337.608 208.997C338.698 213.288 343.319 216.361 347.698 215.708L391.561 186.497C394.192 183.728 391.275 182.627 391.414 178.81Z" fill="#101828"/>
    <path d="M346.431 217.02C347.328 197.063 363.401 181.144 383.366 180.434L385.35 180.363C406.785 180.852 418.344 199.33 417.263 220.743L416.698 292.084L416.558 305.63L367.549 317.281L367.051 289.042C367.051 289.042 346.373 286.576 345.388 266.025C344.913 256.1 345.596 235.583 346.431 217.02Z" fill="#AE7461"/>
    <path d="M366.879 289.019C366.879 289.019 380.036 289.342 393.538 280.176C393.538 280.176 387.728 295.198 367.147 294.076L366.879 289.019Z" fill="#6F4439"/>
    <path d="M352.415 237.757C352.415 239.309 353.73 240.589 355.351 240.619C356.969 240.648 358.284 239.417 358.283 237.864C358.282 236.312 356.968 235.03 355.35 235C353.729 234.97 352.415 236.205 352.415 237.757Z" fill="#101828"/>
    <path d="M351.016 227.975C351.393 228.345 353.558 226.619 356.719 226.516C359.874 226.367 362.25 227.91 362.579 227.511C362.742 227.333 362.346 226.655 361.311 225.956C360.291 225.259 358.571 224.608 356.603 224.686C354.636 224.767 353.006 225.55 352.081 226.326C351.134 227.106 350.829 227.81 351.016 227.975Z" fill="#101828"/>
    <path d="M377.812 237.106C377.812 238.658 379.127 239.937 380.749 239.967C382.367 239.997 383.682 238.765 383.681 237.212C383.681 235.661 382.365 234.379 380.747 234.349C379.127 234.318 377.812 235.553 377.812 237.106Z" fill="#101828"/>
    <path d="M381.225 226.46C381.603 226.83 383.772 225.105 386.93 225.002C390.084 224.853 392.461 226.396 392.79 225.996C392.952 225.819 392.56 225.141 391.52 224.442C390.5 223.745 388.781 223.094 386.813 223.171C384.846 223.252 383.216 224.036 382.29 224.811C381.348 225.591 381.041 226.295 381.225 226.46Z" fill="#101828"/>
    <path d="M371.652 250.247C371.66 250.066 369.685 249.796 366.488 249.503C365.678 249.449 364.909 249.316 364.753 248.77C364.542 248.194 364.849 247.312 365.206 246.359C365.895 244.38 366.616 242.305 367.374 240.131C370.377 231.266 372.519 223.989 372.161 223.871C371.803 223.754 369.079 230.843 366.077 239.708C365.356 241.893 364.666 243.977 364.011 245.969C363.739 246.897 363.25 247.955 363.705 249.15C363.944 249.745 364.551 250.162 365.073 250.282C365.596 250.421 366.05 250.414 366.45 250.424C369.659 250.482 371.646 250.426 371.652 250.247Z" fill="#101828"/>
    <path d="M381.028 252.101C380.513 252.089 380.628 255.519 377.78 258.057C374.936 260.603 371.267 260.348 371.257 260.828C371.217 261.045 372.095 261.465 373.64 261.452C375.155 261.45 377.348 260.886 379.091 259.333C380.829 257.776 381.528 255.757 381.595 254.346C381.675 252.908 381.262 252.072 381.028 252.101Z" fill="#101828"/>
    <path d="M380.864 217.437C381.269 218.244 383.964 217.411 387.272 217.348C390.578 217.209 393.358 217.875 393.669 217.046C393.803 216.651 393.224 215.923 392.039 215.266C390.864 214.609 389.071 214.089 387.088 214.147C385.106 214.21 383.379 214.837 382.283 215.564C381.179 216.292 380.684 217.053 380.864 217.437Z" fill="#101828"/>
    <path d="M351.424 219.285C351.946 220.028 354.156 219.385 356.774 219.472C359.395 219.467 361.583 220.179 362.128 219.453C362.369 219.099 362.054 218.364 361.117 217.64C360.195 216.919 358.625 216.292 356.825 216.262C355.025 216.235 353.437 216.813 352.492 217.505C351.533 218.199 351.195 218.924 351.424 219.285Z" fill="#101828"/>
    <path d="M348.073 207.521C348.073 207.521 353.038 194.453 359.139 191.227C366.526 187.322 370.055 195.457 377.147 193.2C384.239 190.943 391.29 187.198 398.807 192.475C407.034 198.251 403.432 202.636 404.251 211.741C407.573 248.654 414.699 258.873 416.001 241.384C416.143 239.468 421.386 237.762 421.885 229.67C422.531 219.177 422.481 206.467 419.884 199.13C417.694 192.945 413.975 188.751 407.411 184.214C397.049 177.053 383.177 177.384 373.794 178.666C364.411 179.949 346.642 191.43 348.073 207.521Z" fill="#101828"/>
    <path d="M414.67 240.872C414.686 237.694 417.332 235.091 420.504 235.279C424.351 235.508 428.696 237.533 428.724 245.466C428.775 259.538 414.637 256.686 414.611 256.283C414.594 256.009 414.639 246.761 414.67 240.872Z" fill="#AE7461"/>
    <path d="M417.654 250.977C417.716 250.932 417.9 251.148 418.315 251.336C418.719 251.519 419.414 251.644 420.147 251.367C421.632 250.816 422.875 248.452 422.934 245.915C422.965 244.635 422.692 243.416 422.235 242.408C421.802 241.38 421.134 240.663 420.385 240.533C419.64 240.363 419.112 240.813 418.941 241.21C418.753 241.604 418.844 241.884 418.769 241.909C418.73 241.944 418.466 241.674 418.577 241.092C418.634 240.813 418.798 240.48 419.128 240.209C419.465 239.933 419.961 239.791 420.482 239.846C421.568 239.917 422.548 240.912 423.051 242.018C423.613 243.129 423.95 244.499 423.915 245.937C423.835 248.773 422.393 251.432 420.361 252.027C419.372 252.289 418.546 251.994 418.118 251.663C417.681 251.317 417.606 251.003 417.654 250.977Z" fill="#6F4439"/>
    <path d="M413.427 213.648C411.646 214.959 409.763 216.312 407.571 216.608C405.379 216.904 402.819 215.73 402.37 213.564C402.169 212.592 402.367 211.448 401.697 210.714C400.897 209.839 399.491 210.172 398.318 210.339C394.247 210.918 389.959 208.176 388.777 204.237C387.79 205.835 385.355 205.853 383.742 204.893C382.128 203.932 381.054 202.304 379.769 200.935C378.484 199.565 376.707 198.362 374.858 198.693C373.824 198.877 372.873 199.531 371.825 199.475C369.973 199.377 368.995 197.247 368.651 195.425C368.306 193.603 368.013 191.473 366.414 190.533C364.932 189.662 363.074 190.262 361.383 190.573C359.693 190.884 357.485 190.563 356.991 188.917C356.732 188.054 357.073 187.123 357.529 186.345C359.595 182.822 364.314 181.121 368.152 182.517C369.362 177.823 373.577 174.054 378.377 173.375C383.176 172.695 388.272 175.146 390.737 179.32C393.612 176.519 397.888 175.234 401.831 175.987C405.774 176.74 409.276 179.51 410.916 183.174C414.303 182.153 418.247 183.337 420.513 186.054C422.779 188.771 423.233 192.864 421.619 196.013C424.197 197.367 426.45 199.8 426.605 202.708C426.761 205.616 424.03 208.615 421.195 207.95C422.41 210.175 421.596 213.283 419.447 214.626C417.297 215.969 414.147 215.34 412.68 213.273" fill="#101828"/>
    <path d="M422.227 207.881C422.274 207.842 422.528 209.053 421.447 210.614C420.911 211.356 419.977 212.14 418.69 212.394C417.432 212.652 415.868 212.396 414.641 211.372L415.232 211.262C414.58 212.497 413.706 213.762 412.551 214.867C411.807 215.571 410.975 216.178 410.047 216.55C409.138 216.951 408.089 217.023 407.227 216.914C405.438 216.781 403.85 215.879 403.088 214.731C402.298 213.61 402.023 212.552 401.846 211.847C401.678 211.133 401.649 210.727 401.697 210.715C401.757 210.699 401.89 211.081 402.147 211.754C402.408 212.418 402.77 213.414 403.54 214.381C404.944 216.35 409.322 217.225 411.994 214.279C413.067 213.254 413.913 212.057 414.553 210.899L414.786 210.476L415.145 210.789C416.141 211.656 417.481 211.929 418.572 211.748C419.681 211.577 420.53 210.95 421.069 210.317C422.152 208.997 422.103 207.849 422.227 207.881Z" fill="#144B78"/>
    <path d="M256.021 391.954C256.021 391.954 229.494 391.159 227.904 390.662C226.314 390.165 222.44 390.066 220.552 390.662C218.664 391.258 211.113 393.941 211.113 393.941L195.087 398.213C195.087 398.213 178.982 408.747 179.319 410.855C179.656 412.963 181.405 414.408 184.287 413.315C187.168 412.222 201.708 404.671 201.708 404.671L217.667 402.982C217.667 402.982 239.494 410.822 243.899 410.434C248.304 410.045 259.597 408.135 259.597 408.135C259.597 408.135 261.187 396.823 260.392 395.035C259.598 393.246 256.021 391.954 256.021 391.954Z" fill="#AE7461"/>
    <path d="M180.472 420.225C180.472 420.225 193.915 405.81 197.641 403.866C201.366 401.922 222.098 398.521 222.098 398.521C222.098 398.521 228.739 395.768 231.168 396.74C233.598 397.712 259.351 401.599 260.484 401.761C261.618 401.923 254.977 424.436 254.977 424.436C254.977 424.436 246.069 426.056 235.703 423.626C225.337 421.196 221.774 417.957 221.774 417.957L211.426 415.24L205.095 417.655C205.095 417.655 203.958 427.028 199.422 426.542L197.316 425.085L198.936 414.718L192.295 417.471C192.295 417.471 187.112 425.246 183.225 424.112C179.338 422.978 180.472 420.225 180.472 420.225Z" fill="#AE7461"/>
    <path d="M180.472 420.225C180.498 420.227 180.307 420.601 180.369 421.35C180.406 421.718 180.537 422.179 180.87 422.615C181.199 423.053 181.727 423.441 182.392 423.723C183.057 424.004 183.852 424.245 184.725 424.058C185.589 423.861 186.454 423.379 187.298 422.752C188.984 421.483 190.624 419.628 192.178 417.393L192.203 417.357L192.241 417.341C194.232 416.508 196.469 415.571 198.872 414.565L199.143 414.451L199.098 414.743C198.619 417.862 198.081 421.362 197.505 425.113L197.425 424.925C198.068 425.368 198.795 425.869 199.534 426.378L199.443 426.344C200.291 426.42 201.134 426.095 201.779 425.487C202.429 424.886 202.94 424.095 203.325 423.237C204.11 421.526 204.598 419.598 204.877 417.627L204.896 417.495L205.017 417.449C206.989 416.693 209.142 415.869 211.345 415.025L211.413 414.999L211.485 415.018C214.754 415.872 218.244 416.785 221.836 417.723L221.882 417.735L221.937 417.778C223.971 419.368 226.524 420.464 229.096 421.427C231.699 422.36 234.437 423.116 237.251 423.695C240.067 424.271 242.986 424.581 245.951 424.676C248.911 424.759 251.945 424.647 254.931 424.179L254.728 424.361C255.186 422.772 255.678 421.064 256.173 419.346C257.595 414.253 259.025 409.239 260.064 404.283C260.183 403.665 260.299 403.041 260.347 402.437C260.359 402.288 260.362 402.135 260.347 402.018C260.357 401.953 260.285 401.915 260.388 401.999C260.406 402.009 260.427 402.014 260.445 402.014L260.419 402.01L260.36 402.001L260.243 401.984L259.309 401.844C258.067 401.654 256.834 401.465 255.608 401.277C253.159 400.891 250.742 400.51 248.362 400.135C243.604 399.367 238.995 398.614 234.573 397.77C233.465 397.539 232.384 397.354 231.287 397.018C230.306 396.636 229.219 396.766 228.176 396.924C226.082 397.295 224.076 397.979 222.181 398.724L222.156 398.734L222.133 398.738C214.886 399.956 208.257 401.148 202.475 402.536C201.032 402.885 199.638 403.261 198.355 403.742C197.089 404.239 196.074 405.142 195.087 405.952C193.13 407.612 191.43 409.254 189.898 410.734C186.841 413.704 184.515 416.109 182.921 417.737C182.138 418.542 181.532 419.164 181.107 419.6C180.695 420.02 180.472 420.225 180.472 420.225C180.472 420.225 180.663 419.987 181.057 419.552C181.471 419.105 182.061 418.468 182.825 417.644C184.389 415.986 186.687 413.553 189.721 410.552C191.243 409.057 192.931 407.401 194.889 405.717C195.38 405.297 195.886 404.875 196.431 404.475C196.966 404.068 197.567 403.685 198.23 403.434C199.547 402.931 200.941 402.549 202.389 402.19C208.186 400.767 214.808 399.549 222.062 398.306L222.014 398.32C223.94 397.557 225.947 396.865 228.101 396.475C229.162 396.311 230.34 396.16 231.445 396.581C232.455 396.888 233.573 397.084 234.664 397.307C239.074 398.139 243.686 398.883 248.441 399.644C250.821 400.016 253.237 400.393 255.686 400.776C256.911 400.962 258.145 401.15 259.386 401.339L260.318 401.478L260.434 401.495L260.492 401.504L260.524 401.509C260.56 401.517 260.599 401.531 260.634 401.551C260.864 401.725 260.829 401.863 260.855 401.949C260.878 402.144 260.87 402.309 260.859 402.475C260.807 403.131 260.689 403.756 260.569 404.385C259.524 409.385 258.097 414.389 256.673 419.491C256.177 421.211 255.684 422.92 255.226 424.511L255.18 424.669L255.022 424.694C251.965 425.171 248.928 425.279 245.933 425.195C242.94 425.096 239.994 424.781 237.148 424.196C234.304 423.608 231.555 422.844 228.923 421.897C227.61 421.418 226.331 420.882 225.099 420.278C223.869 419.662 222.685 419.019 221.609 418.138L221.71 418.193C218.121 417.246 214.633 416.326 211.366 415.464L211.505 415.456C209.3 416.293 207.145 417.112 205.17 417.861L205.309 417.683C205.015 419.707 204.519 421.646 203.701 423.418C203.298 424.302 202.764 425.135 202.05 425.791C201.346 426.455 200.361 426.838 199.399 426.74L199.349 426.735L199.307 426.706C198.571 426.194 197.846 425.689 197.205 425.244L197.106 425.175L197.125 425.056C197.721 421.308 198.276 417.811 198.771 414.694L199 414.87C196.59 415.86 194.347 416.781 192.35 417.601L192.413 417.549C190.821 419.802 189.16 421.65 187.428 422.928C186.561 423.557 185.669 424.044 184.762 424.239C183.839 424.427 182.994 424.156 182.331 423.86C181.654 423.56 181.112 423.147 180.779 422.682C180.441 422.219 180.318 421.735 180.293 421.355C180.255 420.584 180.472 420.225 180.472 420.225Z" fill="#6F4439"/>
    <path d="M221.185 408.025C221.18 408.061 220.817 408.05 220.164 408C219.511 407.95 218.568 407.86 217.404 407.738C216.197 407.604 214.822 407.451 213.321 407.284C212.936 407.239 212.542 407.192 212.142 407.145C211.74 407.085 211.389 407.111 210.967 407.17C210.153 407.282 209.307 407.477 208.448 407.693C205.076 408.672 201.702 409.323 200.403 411.323C199.712 412.231 199.392 413.126 199.203 413.74C199.023 414.361 198.974 414.72 198.937 414.717C198.903 414.716 198.882 414.345 199.006 413.692C199.14 413.047 199.413 412.097 200.106 411.105C200.458 410.619 200.903 410.117 201.48 409.696C202.055 409.281 202.756 408.933 203.487 408.678C204.951 408.144 206.579 407.636 208.32 407.188C209.191 406.969 210.047 406.774 210.903 406.663C211.313 406.604 211.797 406.582 212.197 406.65C212.598 406.703 212.99 406.755 213.375 406.806C214.873 407.014 216.245 407.204 217.449 407.371C218.608 407.54 219.544 407.685 220.19 407.797C220.835 407.911 221.19 407.989 221.185 408.025Z" fill="#6F4439"/>
    <path d="M185.082 415.43C185.059 415.405 185.448 414.999 186.194 414.31C186.94 413.622 188.04 412.649 189.434 411.487C190.83 410.327 192.514 408.971 194.459 407.558C195.436 406.857 196.476 406.14 197.603 405.461C198.171 405.127 198.759 404.802 199.394 404.525C200.047 404.25 200.704 404.074 201.376 403.889C206.747 402.409 211.774 402.022 215.352 401.485C217.081 401.27 218.515 401.092 219.613 400.955C220.621 400.841 221.18 400.796 221.185 400.831C221.19 400.867 220.64 400.98 219.641 401.156C218.549 401.335 217.124 401.568 215.406 401.849C211.839 402.479 206.829 402.924 201.513 404.391C200.852 404.572 200.187 404.753 199.597 405.001C198.997 405.261 198.421 405.575 197.863 405.9C196.753 406.561 195.715 407.263 194.738 407.949C192.79 409.331 191.087 410.653 189.666 411.773C188.311 412.864 187.187 413.77 186.327 414.463C185.543 415.104 185.108 415.459 185.082 415.43Z" fill="#6F4439"/>
    <path d="M352.612 321.503C352.612 321.503 345.539 331.213 339.936 342.882C335.134 352.883 319.588 386.928 319.588 386.928L256.263 390.252L257.197 414.718C257.197 414.718 318.361 436.508 332.053 432.305C345.745 428.102 360.33 412.315 360.33 412.315L366.878 309.115C366.878 309.115 361.446 308.091 352.612 321.503Z" fill="#79B5BE"/>
    <path d="M365.852 309.347C365.852 309.347 349.615 346.176 347.242 361.777C342.532 392.749 340.95 412.134 340.95 412.134L335.429 460.064H443.578C443.578 460.064 447.159 371.233 444.859 341.448C443.136 319.133 426.045 305.234 419.053 297.601C418.632 297.142 416.706 290.894 416.706 290.894L366.31 303.801L365.852 309.347Z" fill="#79B5BE"/>
    <path d="M360.622 314.944C360.63 314.948 360.588 315.066 360.497 315.293C360.394 315.543 360.257 315.876 360.084 316.297C359.702 317.205 359.159 318.496 358.466 320.145C357.075 323.491 355.07 328.343 353.053 334.497C351.022 340.645 349.035 348.109 347.462 356.528C345.853 364.939 344.55 374.273 343.463 384.1C341.47 403.776 339.666 421.585 338.357 434.511C337.688 440.937 337.145 446.147 336.767 449.783C336.57 451.561 336.417 452.953 336.308 453.932C336.252 454.384 336.209 454.741 336.176 455.01C336.143 455.252 336.122 455.376 336.113 455.375C336.104 455.374 336.108 455.248 336.123 455.004C336.143 454.734 336.17 454.376 336.204 453.921C336.289 452.939 336.411 451.544 336.566 449.761C336.905 446.12 337.392 440.905 337.992 434.472C339.243 421.565 340.895 403.731 342.947 384.042C344.035 374.207 345.354 364.861 346.992 356.437C348.594 348.006 350.625 340.528 352.705 334.38C354.772 328.225 356.832 323.388 358.281 320.065C358.996 318.398 359.593 317.123 359.989 316.254C360.183 315.841 360.335 315.516 360.45 315.27C360.555 315.052 360.614 314.941 360.622 314.944Z" fill="#101828"/>
    <g opacity="0.3">
        <path d="M416.808 372.921C415.813 363.108 411.404 353.265 403.332 347.598L337.389 441.764C349.031 448.041 361.956 454.524 374.89 451.757C381.847 450.269 388.034 446.166 393.051 441.12C403.479 430.633 409.136 416.344 413.112 402.099C415.764 392.6 417.804 382.733 416.808 372.921Z" fill="black"/>
    </g>
    <path d="M424.284 361.545C416.068 390.618 397.578 426.092 391.899 433.219C380.806 447.142 366.145 450.148 357.398 450.148C349.958 450.148 287.077 437.902 268.443 434.241C265.297 433.623 262.831 431.185 262.172 428.047L262.01 427.276L253.621 425.017L258.088 402.508L258.979 401.261L348.912 404.09L375.074 331.224C375.568 330.391 383.124 305.939 403.61 307.05" fill="#79B5BE"/>
    <path d="M403.61 307.048C403.61 307.048 403.38 307.058 402.93 307.057C402.48 307.065 401.808 307.021 400.926 307.106C399.17 307.21 396.523 307.567 393.369 308.901C390.241 310.258 386.688 312.715 383.5 316.514C380.278 320.293 377.448 325.281 375.2 331.297L375.212 331.272C368.605 349.734 359.632 374.806 349.126 404.165L349.07 404.32L348.905 404.315C322.141 403.483 291.563 402.532 258.971 401.518L259.19 401.41C258.911 401.8 258.605 402.229 258.299 402.657L258.342 402.557C257.05 409.067 255.676 415.992 254.287 422.992C254.146 423.702 254.005 424.412 253.876 425.066L253.688 424.764C256.601 425.548 259.419 426.308 262.077 427.023L262.241 427.067L262.264 427.221C262.55 429.093 263.362 430.819 264.736 432.067C265.408 432.69 266.187 433.199 267.035 433.541C267.873 433.902 268.789 434.039 269.721 434.226C273.417 434.948 277.086 435.665 280.727 436.376C288.013 437.778 295.186 439.158 302.228 440.512C316.319 443.182 329.893 445.721 342.842 447.912C346.081 448.449 349.28 448.963 352.443 449.41C354.026 449.608 355.599 449.83 357.151 449.901C358.714 449.922 360.275 449.843 361.809 449.668C367.961 449.013 373.764 447.065 378.806 444.215C383.865 441.365 388.086 437.552 391.489 433.396C393.166 431.305 394.516 429.022 395.852 426.814C397.162 424.587 398.398 422.381 399.569 420.208C408.881 402.782 414.978 388.006 418.852 377.718C420.756 372.557 422.109 368.51 422.97 365.75C423.394 364.376 423.717 363.326 423.939 362.608C424.16 361.901 424.285 361.543 424.285 361.543C424.285 361.543 424.193 361.911 423.988 362.623C423.778 363.344 423.47 364.399 423.067 365.781C422.237 368.552 420.913 372.612 419.037 377.787C415.217 388.104 409.168 402.91 399.886 420.379C398.719 422.558 397.486 424.771 396.177 427.007C394.841 429.225 393.494 431.516 391.795 433.644C388.373 437.84 384.119 441.697 379.015 444.583C373.928 447.47 368.071 449.444 361.857 450.115C360.306 450.294 358.732 450.375 357.145 450.356C355.544 450.285 353.971 450.063 352.381 449.866C349.21 449.422 346.007 448.911 342.765 448.377C329.806 446.198 316.228 443.67 302.134 441.007C295.091 439.655 287.917 438.278 280.63 436.88C276.988 436.17 273.318 435.454 269.622 434.733C268.712 434.55 267.744 434.406 266.838 434.019C265.933 433.653 265.101 433.111 264.384 432.446C262.923 431.138 262.04 429.221 261.757 427.327L261.944 427.525C259.287 426.81 256.468 426.051 253.555 425.266L253.32 425.203L253.367 424.964C253.497 424.31 253.637 423.601 253.778 422.89C255.168 415.89 256.542 408.965 257.835 402.455L257.846 402.4L257.879 402.354C258.185 401.925 258.492 401.497 258.77 401.107L258.851 400.994L258.989 400.998C291.579 402.035 322.157 403.008 348.921 403.859L348.7 404.009C359.268 374.672 368.293 349.619 374.938 331.171L374.95 331.146C377.182 325.206 380.079 320.132 383.329 316.365C386.554 312.556 390.15 310.099 393.31 308.756C396.496 307.436 399.16 307.103 400.924 307.024C401.81 306.952 402.483 307.009 402.934 307.014C403.382 307.031 403.61 307.048 403.61 307.048Z" fill="#101828"/>
    <path d="M329.095 398.319C328.94 398.399 327.696 395.071 324.759 391.955C321.858 388.804 318.627 387.328 318.718 387.179C318.742 387.125 319.576 387.416 320.811 388.126C322.044 388.833 323.651 390.006 325.141 391.6C326.625 393.198 327.681 394.884 328.299 396.164C328.92 397.446 329.151 398.298 329.095 398.319Z" fill="#101828"/>
    <path d="M359.786 421.719C359.697 421.732 359.522 420.566 359 418.752C358.483 416.939 357.544 414.491 356.049 412.033C354.545 409.58 352.797 407.626 351.42 406.337C350.045 405.044 349.088 404.356 349.14 404.282C349.161 404.252 349.417 404.399 349.865 404.691C350.318 404.976 350.937 405.443 351.666 406.064C353.126 407.3 354.959 409.258 356.493 411.762C358.019 414.27 358.923 416.795 359.355 418.658C359.574 419.59 359.706 420.354 359.753 420.887C359.809 421.419 359.822 421.714 359.786 421.719Z" fill="#101828"/>
    <g opacity="0.3">
        <path d="M335.797 403.521L341.032 403.715C341.876 383.174 346.11 362.691 349.732 342.454C340.5 361.307 338.081 382.656 335.797 403.521Z" fill="black"/>
    </g>
    <path d="M417.297 297.601C417.301 297.618 417.131 297.677 416.803 297.773C416.417 297.879 415.941 298.009 415.364 298.168C414.037 298.521 412.244 298.998 410.062 299.578C405.585 300.767 399.416 302.473 392.558 304.203C385.698 305.937 379.425 307.271 374.847 308.023C372.559 308.401 370.7 308.668 369.41 308.8C368.814 308.86 368.323 308.91 367.924 308.95C367.584 308.979 367.404 308.985 367.402 308.967C367.4 308.949 367.575 308.908 367.911 308.846C368.306 308.78 368.792 308.698 369.382 308.599C370.662 308.405 372.508 308.084 374.783 307.66C379.334 306.817 385.578 305.429 392.431 303.697C399.282 301.969 405.467 300.319 409.971 299.221C412.221 298.665 414.049 298.243 415.316 297.971C415.903 297.851 416.386 297.752 416.779 297.671C417.114 297.608 417.292 297.584 417.297 297.601Z" fill="#101828"/>
</svg>
