<svg xmlns="http://www.w3.org/2000/svg" version="1.1" xmlns:xlink="http://www.w3.org/1999/xlink" xmlns:svgjs="http://svgjs.com/svgjs" width="35" height="35"><svg width="35" height="35" viewBox="0 0 35 35" fill="none" xmlns="http://www.w3.org/2000/svg">
<path d="M29.5993 20.8093C27.1378 22.3389 24.4199 23.3336 21.6723 23.777C24.2726 22.7775 26.6194 21.2875 28.5489 19.4416C30.4811 17.598 31.9984 15.405 33.0233 13.0586C34.0459 10.7094 34.5737 8.21049 34.6039 5.76637C34.6275 4.04977 34.4009 2.36481 33.9642 0.7601C33.4317 0.291293 32.7358 0.00425209 31.971 0.000947307C32.2892 1.96918 32.3563 3.95441 32.1712 5.89148C31.8823 8.88561 31.0019 11.7636 29.6323 14.3158C28.2656 16.8714 26.4089 19.0917 24.2514 20.8494C26.0038 18.6834 27.2912 16.2199 28.039 13.6563C28.7906 11.0932 29.0082 8.43569 28.7226 5.89148C28.487 3.81608 27.912 1.82235 27.0618 0.000475454H24.3477C24.3647 0.0377723 24.3845 0.0736497 24.4015 0.110947C25.6483 2.84872 26.3248 5.78101 26.4145 8.676C26.5085 11.5724 26.0109 14.424 25.0214 17.0248C25.4562 14.2729 25.3391 11.4954 24.7051 8.90167C24.0748 6.306 22.9343 3.89587 21.4146 1.8351C20.9345 1.18595 20.4133 0.575976 19.8638 0H16.0832C17.9603 1.5575 19.5621 3.38929 20.8079 5.40001C22.3375 7.8616 23.3322 10.5795 23.7755 13.3272C22.7761 10.7268 21.2862 8.37998 19.4403 6.45046C17.5968 4.51811 15.4039 3.00074 13.0576 1.97579C10.7085 0.953196 8.20969 0.425375 5.76567 0.39516C4.04866 0.371555 2.36424 0.598166 0.759594 1.03487C0.290806 1.56741 0.00377288 2.2633 0.000468231 3.02813C1.96862 2.70992 3.95377 2.64288 5.89077 2.82795C8.88478 3.11688 11.7627 3.99737 14.3148 5.36697C16.8702 6.73373 19.0905 8.59054 20.8481 10.7481C18.6821 8.99562 16.2187 7.70817 13.6553 6.96034C11.0923 6.20874 8.43488 5.9911 5.89077 6.27673C3.81545 6.51231 1.82181 7.08734 0 7.93761V10.6518C0.0368232 10.6348 0.0731713 10.615 0.110467 10.598C2.84813 9.35112 5.7803 8.67458 8.67517 8.58488C11.5715 8.49093 14.4229 8.98853 17.0237 9.97808C14.2718 9.54327 11.495 9.66035 8.90083 10.2944C6.30526 10.9247 3.89523 12.0653 1.83455 13.585C1.18542 14.0652 0.575481 14.5864 0 15.1359V18.9161C1.55743 17.039 3.38915 15.4371 5.39979 14.1912C7.86128 12.6616 10.5791 11.6668 13.3267 11.2235C10.7264 12.223 8.37964 13.713 6.4502 15.5589C4.51792 17.4025 3.00062 19.5955 1.97571 21.9419C0.953154 24.2911 0.425355 26.79 0.394669 29.2341C0.371064 30.9507 0.598139 32.6357 1.03435 34.2404C1.56687 34.7092 2.26274 34.9962 3.02753 34.9995C2.70934 33.0313 2.6423 31.0461 2.82736 29.109C3.11628 26.1149 3.99673 23.2369 5.36627 20.6846C6.73298 18.1291 8.58972 15.9088 10.7472 14.1511C8.99478 16.3171 7.70738 18.7806 6.95958 21.3442C6.20801 23.9073 5.99038 26.5648 6.27599 29.109C6.51157 31.1839 7.08658 33.1781 7.93682 35H10.6509C10.6339 34.9632 10.6141 34.9268 10.5971 34.8895C9.35026 32.1522 8.67376 29.2195 8.58406 26.3245C8.49011 23.4281 8.98769 20.5765 9.9772 17.9757C9.5424 20.7276 9.65948 23.505 10.2935 26.0988C10.9237 28.694 12.0643 31.1046 13.584 33.1654C14.0641 33.8145 14.5853 34.4245 15.1348 35H18.9158C17.0388 33.4425 15.437 31.6107 14.1911 29.6C12.6615 27.1384 11.6668 24.4204 11.2235 21.6728C12.2229 24.2731 13.7129 26.62 15.5588 28.5495C17.4023 30.4819 19.5951 31.9993 21.9414 33.0242C24.2906 34.0468 26.7894 34.5746 29.2334 34.6048C30.9504 34.6284 32.6348 34.4018 34.2395 33.9651C34.7082 33.4326 34.9953 32.7367 34.9986 31.9719C33.0304 32.2901 31.0453 32.3571 29.1083 32.172C26.1143 31.8831 23.2364 31.0026 20.6843 29.633C18.1293 28.2663 15.9086 26.4095 14.151 24.2519C16.3169 26.0044 18.7803 27.2918 21.3438 28.0397C23.9068 28.7913 26.5642 29.0089 29.1083 28.7233C31.1836 28.4877 33.1772 27.9127 34.9995 27.0624V24.3482C34.9627 24.3652 34.9263 24.385 34.889 24.402C32.1519 25.6489 29.2192 26.3254 26.3243 26.4151C23.4281 26.5091 20.5766 26.0115 17.9759 25.0219C20.7277 25.4567 23.505 25.3397 26.0987 24.7056C28.6943 24.0753 31.1043 22.9347 33.165 21.415C33.8141 20.9349 34.424 20.4136 35 19.8641V16.0839C33.4416 17.962 31.6099 19.5638 29.5993 20.8093Z" fill="#162427"></path>
</svg><style>@media (prefers-color-scheme: light) { :root { filter: none; } }
</style></svg>