<svg width="1000" height="207" viewBox="0 0 1000 207" fill="none" xmlns="http://www.w3.org/2000/svg">
<g clip-path="url(#clip0_2784_126257)">
<g clip-path="url(#clip1_2784_126257)">
<path d="M357.025 90.4097C357.025 84.6721 356.78 78.2021 356.341 73.319C354.265 52.6637 341.887 39.3573 310.44 39.3573C283.095 39.3573 263.319 54.0065 261.195 79.8867C261.182 80.0434 261.2 80.2011 261.25 80.3502C261.3 80.4992 261.381 80.6364 261.486 80.7531C261.591 80.8699 261.719 80.9638 261.863 81.0289C262.006 81.0941 262.161 81.1291 262.318 81.1319H285.341C285.618 81.1269 285.884 81.0194 286.087 80.83C286.29 80.6407 286.416 80.3828 286.44 80.1064C288.051 65.6037 295.62 57.7176 309.977 57.7176C324.333 57.7176 330.631 64.6027 331.315 74.4665C331.701 78.8908 331.856 83.3323 331.779 87.7728V90.7027H323.966C277.846 90.7027 256.287 105.352 256.287 132.453C256.287 155.183 273.94 167.562 295.523 167.562C303.789 167.81 312.014 166.321 319.669 163.192C319.864 163.121 320.035 162.993 320.158 162.825L330.632 148.567C330.759 148.4 330.93 148.272 331.127 148.198C331.323 148.124 331.536 148.106 331.742 148.146C331.948 148.187 332.138 148.285 332.291 148.428C332.445 148.571 332.555 148.755 332.61 148.957L336.515 163.607C336.584 163.845 336.728 164.055 336.926 164.205C337.124 164.354 337.366 164.436 337.614 164.437H360.467C360.629 164.432 360.788 164.392 360.934 164.321C361.08 164.25 361.209 164.149 361.313 164.024C361.417 163.9 361.492 163.755 361.536 163.599C361.58 163.442 361.59 163.279 361.566 163.118C359.735 150.349 357.025 142.341 357.025 133.454V90.4097ZM331.779 118.634C331.779 138.386 320.524 149.153 304.703 149.153C291.396 149.153 280.458 143.195 280.458 130.353C280.458 111.968 301.651 105.254 330.73 107.329C331.015 107.348 331.281 107.475 331.476 107.683C331.671 107.892 331.779 108.167 331.779 108.453V118.634Z" fill="#2A393A"/>
<path d="M432.419 39.2353C400.508 39.2353 373.431 62.4054 373.431 103.96C373.431 147.322 397.529 167.44 429.44 167.44C457.664 167.44 478.564 153.45 484.692 125.226C484.729 125.058 484.727 124.885 484.688 124.718C484.648 124.551 484.571 124.394 484.464 124.261C484.356 124.127 484.219 124.02 484.064 123.946C483.909 123.872 483.74 123.834 483.568 123.834H460.154C459.9 123.838 459.654 123.926 459.455 124.085C459.256 124.245 459.116 124.465 459.056 124.713C455.223 140.583 445.017 146.687 430.807 146.687C413.839 146.687 400.069 135.138 400.069 102.105C400.069 71.5611 414.059 60.0127 431.809 60.0127C446.458 60.0127 456.224 65.8724 460.082 83.7444C460.132 83.9946 460.264 84.2204 460.46 84.3846C460.655 84.5487 460.901 84.6415 461.156 84.6477H484.448C484.609 84.6491 484.767 84.6159 484.914 84.5506C485.061 84.4852 485.192 84.3891 485.298 84.2688C485.405 84.1484 485.485 84.0067 485.532 83.853C485.579 83.6994 485.592 83.5374 485.571 83.3781C482.055 57.2293 462.67 39.2353 432.419 39.2353Z" fill="#2A393A"/>
<path d="M613.898 42.4581H590.972C590.674 42.4581 590.388 42.5765 590.178 42.7871C589.967 42.9977 589.848 43.2834 589.848 43.5812V56.3504C589.849 56.5681 589.785 56.7813 589.666 56.9637C589.547 57.1462 589.378 57.2902 589.179 57.3782C588.979 57.4661 588.759 57.4943 588.544 57.4592C588.329 57.4241 588.129 57.3273 587.968 57.1806L572.343 42.336C572.209 42.2145 572.051 42.123 571.879 42.0675C565.723 40.2253 559.335 39.2716 552.909 39.2353C521.462 39.2353 493.921 60.8184 493.921 105.327C493.921 141.12 513.893 167.513 548.782 167.513C557.483 167.554 566.097 165.783 574.076 162.313C574.222 162.237 574.354 162.138 574.467 162.02L587.896 147.2C588.048 147.032 588.247 146.915 588.468 146.863C588.689 146.811 588.92 146.827 589.131 146.909C589.342 146.991 589.524 147.135 589.652 147.322C589.78 147.508 589.849 147.73 589.848 147.956V205.723C589.855 206.019 589.975 206.301 590.185 206.51C590.394 206.719 590.676 206.84 590.972 206.846H613.97C614.268 206.846 614.554 206.728 614.764 206.517C614.975 206.306 615.093 206.021 615.093 205.723V43.5812C615.098 43.4263 615.069 43.2723 615.009 43.1293C614.949 42.9863 614.861 42.8574 614.748 42.7514C614.635 42.6453 614.501 42.5644 614.354 42.5138C614.208 42.4633 614.052 42.4443 613.898 42.4581V42.4581ZM589.775 104.644C589.775 137.238 573.49 146.711 554.446 146.711C532.644 146.711 520.484 129.621 520.484 103.277C520.484 72.9772 535.622 60.0371 555.593 60.0371C571.878 60.0371 589.775 68.6069 589.775 98.2226V104.644Z" fill="#2A393A"/>
<path d="M747.058 139.533V43.5812C747.058 43.2834 746.94 42.9977 746.729 42.7871C746.519 42.5765 746.233 42.4581 745.935 42.4581H723.156C722.858 42.4581 722.572 42.5765 722.362 42.7871C722.151 42.9977 722.033 43.2834 722.033 43.5812V99.7363C722.033 135.065 708.726 147.248 691.074 147.248C675.448 147.248 666.658 139.924 664.9 126.569C664.311 121.005 664.001 115.415 663.973 109.82V43.5812C663.976 43.4328 663.949 43.2852 663.894 43.1474C663.839 43.0097 663.757 42.8846 663.652 42.7797C663.547 42.6747 663.421 42.592 663.284 42.5368C663.146 42.4815 662.998 42.4547 662.85 42.4581H640.095C639.947 42.4547 639.799 42.4815 639.661 42.5368C639.523 42.592 639.398 42.6747 639.293 42.7797C639.188 42.8846 639.106 43.0097 639.051 43.1474C638.995 43.2852 638.969 43.4328 638.972 43.5812V114.971C638.784 122.177 639.167 129.385 640.119 136.53C642.878 153.303 657.551 167.513 682.797 167.513C695.004 167.513 703.77 165.487 713.341 158.724C713.479 158.616 713.594 158.484 713.682 158.333L720.348 146.443C720.463 146.234 720.641 146.067 720.857 145.966C721.073 145.866 721.315 145.836 721.549 145.883C721.782 145.929 721.996 146.048 722.158 146.224C722.319 146.399 722.421 146.621 722.448 146.858L724.376 163.314C724.406 163.586 724.534 163.838 724.737 164.022C724.939 164.206 725.201 164.31 725.474 164.315H748.254C748.411 164.312 748.566 164.277 748.709 164.212C748.853 164.147 748.981 164.053 749.086 163.936C749.192 163.819 749.272 163.682 749.322 163.533C749.372 163.384 749.39 163.226 749.377 163.07L747.058 139.704V139.533Z" fill="#2A393A"/>
<path d="M796.255 42.4581H773.255C772.635 42.4581 772.132 42.961 772.132 43.5812V163.192C772.132 163.812 772.635 164.315 773.255 164.315H796.255C796.875 164.315 797.378 163.812 797.378 163.192V43.5812C797.378 42.961 796.875 42.4581 796.255 42.4581Z" fill="#2A393A"/>
<path d="M784.756 -2.54626e-05C782.798 -0.0662721 780.847 0.273992 779.026 0.999146C777.206 1.7243 775.555 2.81867 774.179 4.21333C772.803 5.608 771.73 7.27261 771.029 9.10235C770.328 10.9321 770.015 12.8872 770.107 14.8445C770.319 18.6263 771.94 22.1912 774.652 24.8355C777.364 27.4797 780.97 29.0113 784.756 29.1275C786.801 29.3494 788.87 29.138 790.828 28.5073C792.785 27.8765 794.588 26.8404 796.119 25.4666C797.65 24.0927 798.876 22.4118 799.714 20.5333C800.552 18.6548 800.985 16.6208 800.985 14.5637C800.985 12.5067 800.552 10.4727 799.714 8.59419C798.876 6.71569 797.65 5.0348 796.119 3.66092C794.588 2.28705 792.785 1.25094 790.828 0.620191C788.87 -0.0105609 786.801 -0.221888 784.756 -2.54626e-05V-2.54626e-05Z" fill="#2A393A"/>
<path d="M887.397 59.4023V41.6768C887.408 41.4392 887.339 41.205 887.202 41.0106C887.065 40.8161 886.868 40.6726 886.64 40.6025C883.311 39.8243 879.902 39.4392 876.483 39.4551C871.504 39.5698 866.628 40.8938 862.274 43.3127C862.122 43.3986 861.988 43.5148 861.883 43.6544L849.358 60.4034C849.217 60.5948 849.019 60.7362 848.792 60.8076C848.565 60.8789 848.321 60.8764 848.096 60.8004C847.87 60.7244 847.675 60.5787 847.538 60.3845C847.4 60.1903 847.328 59.9575 847.332 59.7197V43.5813C847.332 43.2834 847.213 42.9978 847.003 42.7872C846.792 42.5765 846.506 42.4581 846.209 42.4581H823.21C822.912 42.4581 822.626 42.5765 822.416 42.7872C822.205 42.9978 822.087 43.2834 822.087 43.5813V163.216C822.093 163.512 822.212 163.794 822.422 164.003C822.631 164.213 822.914 164.333 823.21 164.339H846.209C846.504 164.333 846.786 164.213 846.995 164.003C847.205 163.794 847.325 163.512 847.332 163.216V100.957C847.332 71.4147 863.666 59.4512 886.225 60.501C886.376 60.5111 886.526 60.49 886.668 60.4393C886.81 60.3886 886.939 60.3093 887.049 60.2063C887.159 60.1032 887.247 59.9787 887.307 59.8404C887.366 59.7021 887.398 59.553 887.397 59.4023V59.4023Z" fill="#2A393A"/>
<path d="M945.603 39.2353C910.494 39.2353 885.932 65.1643 885.932 103.716C885.932 146.858 910.494 167.513 943.064 167.513C969.261 167.513 992.139 154.182 997.877 126.202C997.913 126.038 997.912 125.868 997.874 125.703C997.836 125.539 997.76 125.386 997.655 125.255C997.549 125.123 997.416 125.018 997.264 124.945C997.112 124.872 996.946 124.835 996.777 124.835H973.608C973.345 124.837 973.091 124.931 972.89 125.1C972.69 125.27 972.555 125.504 972.509 125.763C969.701 140.412 958.372 146.711 943.991 146.711C927.706 146.711 914.547 139.729 912.252 111.627C912.242 111.469 912.264 111.31 912.317 111.161C912.37 111.012 912.453 110.875 912.56 110.759C912.668 110.642 912.796 110.549 912.941 110.484C913.085 110.419 913.241 110.384 913.4 110.381H998.585C998.865 110.377 999.134 110.27 999.341 110.081C999.547 109.892 999.678 109.635 999.708 109.356C1000.05 105.474 1000.05 102.398 1000.05 100.273C999.975 65.8479 980.932 39.2353 945.603 39.2353ZM972.826 92.7047H913.619C913.457 92.7026 913.298 92.6663 913.152 92.5982C913.005 92.5301 912.874 92.4317 912.768 92.3095C912.662 92.1873 912.582 92.044 912.535 91.8891C912.488 91.7343 912.475 91.5711 912.496 91.4106C915.548 68.9486 927.78 60.0371 944.676 60.0371C962.035 60.0371 971.85 69.8032 973.974 91.4595C973.988 91.6182 973.967 91.7781 973.916 91.9288C973.864 92.0795 973.783 92.2177 973.675 92.3349C973.567 92.452 973.436 92.5454 973.29 92.6091C973.144 92.6727 972.985 92.7053 972.826 92.7047V92.7047Z" fill="#2A393A"/>
<path d="M0 127.03C0 127.48 0.1 127.93 0.31 128.34C0.51 128.75 0.81 129.1 1.18 129.36C1.55 129.63 1.97 129.8 2.42 129.88C2.87 129.95 3.33 129.92 3.76 129.78L101.78 98.11C102.21 97.97 102.66 97.94 103.11 98.01C103.55 98.08 103.97 98.25 104.34 98.51C104.7 98.77 105 99.12 105.21 99.52C105.42 99.92 105.53 100.36 105.53 100.81L105.65 171.87C105.65 172.32 105.77 172.76 105.97 173.16C106.17 173.56 106.48 173.9 106.84 174.16C107.2 174.42 107.63 174.6 108.07 174.67C108.51 174.74 108.97 174.7 109.4 174.57L175.78 153.23C176.26 153.07 176.78 153.04 177.27 153.15C177.76 153.26 178.22 153.5 178.6 153.84L207.68 180.47C208.09 180.88 208.6 181.16 209.17 181.27C209.73 181.38 210.32 181.32 210.85 181.09C211.38 180.86 211.83 180.48 212.14 180C212.45 179.51 212.61 178.95 212.59 178.37V65.66C212.61 65.18 212.5 64.71 212.29 64.28C212.08 63.85 211.76 63.48 211.37 63.2C210.98 62.92 210.52 62.75 210.05 62.69C209.58 62.63 209.09 62.69 208.64 62.87L110.83 93.6C110.4 93.74 109.94 93.77 109.49 93.69C109.04 93.61 108.62 93.43 108.26 93.16C107.9 92.89 107.6 92.54 107.4 92.13C107.2 91.72 107.1 91.28 107.1 90.82L107.13 20.36C107.13 19.91 107.04 19.46 106.84 19.05C106.64 18.64 106.35 18.29 105.99 18.02C105.63 17.75 105.21 17.56 104.76 17.49C104.31 17.41 103.86 17.44 103.42 17.57L36.72 38.49C36.24 38.63 35.73 38.65 35.24 38.54C34.75 38.43 34.3 38.19 33.93 37.85L4.91 11.22C4.5 10.81 3.98 10.53 3.41 10.42C2.84 10.31 2.25 10.38 1.72 10.61C1.19 10.84 0.74 11.23 0.44 11.73C0.13 12.22 -0.01 12.8 0.02 13.38V127.03H0Z" fill="#2A393A"/>
</g>
</g>
<defs>
<clipPath id="clip0_2784_126257">
<rect width="1000" height="207" fill="white"/>
</clipPath>
<clipPath id="clip1_2784_126257">
<rect width="1000" height="206.846" fill="white"/>
</clipPath>
</defs>
</svg>
